<ttFont>
          <CharString index="0">
            -26 callsubr
            132 59 83 107 86 -53 76 -110 hvcurveto
            -1 hlineto
            -120 -57 -85 -105 -89 60 -73 89 hvcurveto
            503 hmoveto
            1 hlineto
            133 58 83 107 86 -51 76 -111 hvcurveto
            -1 hlineto
            -120 -57 -85 -105 -81 59 -81 89 hvcurveto
            return
          </CharString>
          <CharString index="1">
            hmoveto
            539 -50 callsubr
            -159 22 70 251 rlineto
            503 hlineto
            72 -247 -144 -43 callsubr
            633 -30 callgsubr
            -116 25 -465 1370 rlineto
            -353 hlineto
            -462 -1369 -120 -26 rlineto
            667 1046 rmoveto
            31 141 31 -141 181 -619 rlineto
            -415 hlineto
            return
          </CharString>
          <CharString index="2">
            rmoveto
            182 callsubr
            461 -204 295 -475 1 vhcurveto
            -423 1 -282 -308 -479 vvcurveto
            -466 207 -317 475 5 vhcurveto
            10 1426 rmoveto
            200 120 -185 -435 -10 callgsubr
            -200 -119 205 436 -11 callsubr
            hvcurveto
            return
          </CharString>
          <CharString index="3">
            rmoveto
            -150 -61 167 303 300 68 135 138 151 56 -167 -303 -300 -65 -135 -137 hvcurveto
            -562 445 rmoveto
            -365 201 -223 343 302 271 188 415 365 -201 223 -343 -301 -272 -199 -404 vhcurveto
            return
          </CharString>
          <CharString index="4">
            rmoveto
            -102 callsubr
            return
          </CharString>
          <CharString index="5">
            1 hlineto
            135 66 86 109 90 -64 78 -117 hvcurveto
            -1 hlineto
            -123 -69 -90 -107 -94 71 -72 101 hvcurveto
            return
          </CharString>
          <CharString index="6">
            -62 callsubr
            hintmask 0111010100000000
            -88 callsubr
            hintmask 0111010010000000
            87 126 22 11 50 hvcurveto
            hintmask 1011010010000000
            127 vlineto
            hintmask 1011010100000000
            -98 callsubr
            hintmask 0111010100000000
            -96 callsubr
            return
          </CharString>
          <CharString index="7">
            588 -50 callsubr
            -128 19 rlineto
            969 vlineto
            -62 44 rlineto
            -5 hlineto
            -394 -50 rlineto
            -153 vlineto
            135 -41 rlineto
            -768 vlineto
            -134 -20 rlineto
            return
          </CharString>
          <CharString index="8">
            rmoveto
            240 79 67 12 127 hvcurveto
            38 336 -194 18 -96 -221 rlineto
            -31 -27 -47 -35 -116 hhcurveto
            -252 -113 292 365 409 139 204 210 111 56 -25 -27 20 hvcurveto
            70 -302 rlineto
            214 hlineto
            24 446 rlineto
            7 -82 -193 46 -195 hhcurveto
            -431 -327 -290 -498 -478 252 -295 493 hvcurveto
            return
          </CharString>
          <CharString index="9">
            -109 613 hlineto
            299 -101 117 -320 -233 -211 -115 -45 -54 vhcurveto
            65 -135 rlineto
            1 hlineto
            34 79 117 47 154 hhcurveto
            168 35 -67 -140 hvcurveto
            -42 vlineto
            return
          </CharString>
          <CharString index="10">
            -221 -33 -146 -102 -48 vhcurveto
            -35 -19 -47 -6 -19 1 17 -131 rcurveline
            16 -6 77 -3 31 1 rrcurveto
            159 8 256 172 340 vvcurveto
            1100 vlineto
            -62 44 rlineto
            -5 hlineto
            -387 -50 -2 -157 135 -43 rlineto
            return
          </CharString>
          <CharString index="11">
            -400 -4 -263 -120 -258 vvcurveto
            504 -154 rmoveto
            -93 -64 66 125 107 75 102 241 1 hvcurveto
            -336 vlineto
            -39 -43 -71 -26 -45 hhcurveto
            return
          </CharString>
          <CharString index="12">
            -103 callgsubr
            endchar
          </CharString>
          <CharString index="13">
            -26 callsubr
            134 63 73 108 86 -65 69 -113 hvcurveto
            -1 hlineto
            -121 -63 -74 -106 -90 68 -66 97 hvcurveto
            return
          </CharString>
          <CharString index="14">
            131 -546 -27 callsubr
            139 -24 -198 -320 rlineto
            -202 318 hlineto
            136 26 -1 131 rlineto
            -580 -131 hlineto
            125 -25 rlineto
            -319 -202 vlineto
            -199 320 140 24 -15 callgsubr
            -545 -27 callsubr
            160 -25 259 -347 -202 -100 -88 -343 -95 -32 rlinecurve
            -92 -23 rlineto
            -137 334 vlineto
            182 47 529 1 184 hvcurveto
            117 -371 hlineto
            -145 147 callgsubr
            632 -30 callgsubr
            -167 26 rlineto
            370 vlineto
            116 -1 rlineto
            186 46 -529 182 hhcurveto
            return
          </CharString>
          <CharString index="15">
            rmoveto
            106 -66 60 -94 vhcurveto
            -10 hlineto
            -57 -98 -27 -98 -53 21 -31 22 -16 hvcurveto
            21 -11 22 -19 -39 vvcurveto
            -46 -18 -58 -32 -13 vhcurveto
            return
          </CharString>
          <CharString index="16">
            rmoveto
            245 129 156 177 16 0 14 -2 14 hvcurveto
            -161 hlineto
            -5 0 -8 -1 -10 vhcurveto
            -55 -8 -38 -92 -162 hhcurveto
            -163 -44 93 54 -10 hvcurveto
            -1 10 -1 8 5 vvcurveto
            -158 hlineto
            -2 -15 0 -15 -15 vvcurveto
            -177 124 -155 253 vhcurveto
            return
          </CharString>
          <CharString index="17">
            -107 callsubr
            endchar
          </CharString>
          <CharString index="18">
            rmoveto
            246 78 188 164 67 hvcurveto
            395 1023 111 29 -69 callgsubr
            -464 143 callgsubr
            -27 -214 -638 -52 -161 -51 159 -249 638 172 29 -69 callgsubr
            -658 -73 callgsubr
            115 -28 467 -1040 rlineto
            -94 -25 -36 -18 -132 hhcurveto
            -149 -186 hlineto
            -22 47 106 -16 83 hhcurveto
            return
          </CharString>
          <CharString index="19">
            58 319 rmoveto
            -225 162 -117 187 162 112 84 60 52 vhcurveto
            -31 vlineto
            -94 32 -21 102 vhcurveto
            return
          </CharString>
          <CharString index="20">
            -30 callgsubr
            -83 26 -104 36 -143 534 -259 84 rlinecurve
            384 539 172 28 -69 callgsubr
            -555 -73 callgsubr
            136 -29 -330 -527 rlineto
            -141 528 hlineto
            115 callsubr
            -649 -73 callgsubr
            162 -28 rlineto
            -528 -140 vlineto
            -332 528 138 28 -69 callgsubr
            -551 -73 callgsubr
            167 -28 384 -539 -259 -83 -143 -535 -103 -36 rlinecurve
            -84 -43 callsubr
            357 vlineto
            165 131 699 203 hhcurveto
            67 -538 hlineto
            -171 145 callgsubr
            671 132 vlineto
            -175 28 rlineto
            539 68 vlineto
            203 130 -699 165 hhcurveto
            endchar
          </CharString>
          <CharString index="21">
            127 26 -69 callgsubr
            -517 -73 callgsubr
            153 -28 -219 -484 -51 -127 -46 129 -239 481 135 29 -69 callgsubr
            -638 -73 callgsubr
            120 -29 return
          </CharString>
          <CharString index="22">
            -36 -106 callsubr
            return
          </CharString>
          <CharString index="23">
            -87 60 -71 88 vhcurveto
            527 hmoveto
            1 hlineto
            133 94 callgsubr
            return
          </CharString>
          <CharString index="24">
            rlineto
            1210 vlineto
            242 -10 88 -444 rlineto
            183 hlineto
            -29 605 rlineto
            -1327 hlineto
            -30 -605 rlineto
            190 hlineto
            83 444 258 10 rlineto
            -1211 vlineto
            -257 -26 rlineto
            return
          </CharString>
          <CharString index="25">
            rmoveto
            299 255 290 -254 112 88 -306 399 rlineto
            -195 hlineto
            -306 -400 rlineto
            return
          </CharString>
          <CharString index="26">
            321 -185 337 -62 callsubr
            hintmask 1101100010010000
            1096 807 -17 callgsubr
            hintmask 1101010010010000
            -50 callgsubr
            hintmask 1101010001001000
            25 callgsubr
            hintmask 1101010100001000
            -70 callgsubr
            hintmask 1101010001001000
            -18 callsubr
            hintmask 1101100010010000
            46 callgsubr
            hintmask 1101010100001000
            -59 callsubr
            hintmask 1011010100001000
            116 callgsubr
            hintmask 1101010100001000
            -4 33 36 -3 40 hhcurveto
            hintmask 1101010010010000
            -67 callgsubr
            hintmask 0000001000100000
            return
          </CharString>
          <CharString index="27">
            82 -51 75 -111 37 callsubr
            -57 -84 -102 hvcurveto
            return
          </CharString>
          <CharString index="28">
            -43 124 rlineto
            -1 hlineto
            -13 -44 -74 -17 -69 hhcurveto
            -1 hlineto
            -90 -7 15 220 hvcurveto
            542 298 169 -300 vlineto
            -9 301 rlineto
            -185 hlineto
            -18 -64 -32 -89 -24 -52 -20 -47 -21 -28 -23 -22 -8 -6 -93 -39 -16 -6 rrcurveto
            -117 123 vlineto
            return
          </CharString>
          <CharString index="29">
            -26 callsubr
            117 88 -313 312 rlineto
            -1 hlineto
            -204 -148 72 -107 234 -121 94 -24 rlinecurve
            return
          </CharString>
          <CharString index="30">
            42 -12 140 -128 128 -128 101 callsubr
            551 153 489 -20 callsubr
            -123 136 -13 -20 hstemhm
            233 334 388 334 -263 369 -62 callsubr
            hintmask 0100100101010000
            77 hmoveto
            322 hlineto
            139 61 -12 141 hhcurveto
            hintmask 1000100101010000
            508 147 212 259 228 -174 130 -259 -2 hvcurveto
            hintmask 1000100101100000
            189 30 138 137 207 vvcurveto
            216 -129 130 -443 vhcurveto
            hintmask 1000100011010000
            -104 -92 -13 -128 hhcurveto
            -314 hlineto
            hintmask 1000101001010000
            -73 callgsubr
            hintmask 0001110001010000
            154 26 callgsubr
            hintmask 0010100101010000
            185 callsubr
            490 574 rmoveto
            2 38 79 1 61 hhcurveto
            194 87 -74 -204 hvcurveto
            hintmask 1000100101010000
            -189 -82 -116 -215 -59 -76 3 15 -27 vhcurveto
            1 1243 rmoveto
            4 23 72 6 44 hhcurveto
            hintmask 1000100101100000
            179 69 -79 -171 -180 -64 -105 -163 -48 -74 0 4 -38 hvcurveto
            endchar
          </CharString>
          <CharString index="31">
            625 120 -104 callsubr
            return
          </CharString>
          <CharString index="32">
            -23 rmoveto
            189 184 95 69 65 hvcurveto
            -54 123 rlineto
            -38 -60 -126 -46 -111 hhcurveto
            -167 -114 108 254 -17 hvcurveto
            649 hlineto
            11 53 5 173 callsubr
            -149 150 -284 hhcurveto
            -140 -120 -40 -74 -92 hvcurveto
            hintmask 0101101110000000
            77 -55 -98 34 -170 hhcurveto
            -232 -218 -110 -50 -57 hvcurveto
            66 -139 rlineto
            37 89 116 44 151 hhcurveto
            168 38 -64 -138 hvcurveto
            -43 vlineto
            -393 -4 -269 -125 -263 vvcurveto
            -224 161 -108 185 183 158 97 109 72 vhcurveto
            hintmask 0110011110000000
            -129 86 144 -77 214 hhcurveto
            hintmask 1001011110000000
            -705 188 rmoveto
            -87 -61 54 135 106 75 110 237 1 hvcurveto
            -3 vlineto
            -106 15 -96 31 -82 vhcurveto
            -58 -38 -86 -61 -86 hhcurveto
            679 861 rmoveto
            120 38 -113 -150 hvcurveto
            hintmask 0110011110000000
            -21 -1 -42 -1 -21 vhcurveto
            -344 hlineto
            hintmask 1001011110000000
            146 callgsubr
          </CharString>
          <CharString index="33">
            -46 callsubr
            177 callsubr
            -72 callsubr
            endchar
          </CharString>
          <CharString index="34">
            1614 -95 callgsubr
            return
          </CharString>
          <CharString index="35">
            hintmask 00000000
            hintmask 01110000
            91 hmoveto
            674 hlineto
            hintmask 10110000
            132 vlineto
            hintmask 01110000
            -96 callgsubr
            hintmask 10110000
            -165 -26 rlineto
            return
          </CharString>
          <CharString index="36">
            hmoveto
            557 -50 callsubr
            -119 20 rlineto
            737 vlineto
            45 54 81 35 82 hhcurveto
            133 26 -79 -183 166 callsubr
            -110 -20 rlineto
            -133 564 -30 callgsubr
            -130 20 rlineto
            556 vlineto
            309 -69 143 -260 -180 -142 -88 -64 -71 vhcurveto
            16 185 -2 441 -59 44 rlineto
            -6 hlineto
            -403 -49 116 callsubr
            146 -26 rlineto
            -1329 vlineto
            -108 -19 rlineto
            return
          </CharString>
          <CharString index="37">
            121 90 69 117 87 -64 80 -116 -109 -95 -75 -110 -101 85 -67 88 hvcurveto
            return
          </CharString>
          <CharString index="38">
            rmoveto
            754 135 hlineto
            -238 24 rlineto
            877 vlineto
            -159 26 rlineto
            -5 hlineto
            -117 -92 -147 -50 -111 -33 44 -144 rcurveline
            66 11 87 13 81 29 rrcurveto
            -638 vlineto
            -255 -23 rlineto
            return
          </CharString>
          <CharString index="39">
            676 -50 callsubr
            -182 24 rlineto
            493 vlineto
            -1 16 97 -1 73 hhcurveto
            -75 149 97 -574 98 hhcurveto
            389 -50 callsubr
            -63 22 -101 26 -74 432 -222 91 rlinecurve
            200 63 93 191 169 vvcurveto
            284 -153 123 -433 vhcurveto
            return
          </CharString>
          <CharString index="40">
            -98 callgsubr
            endchar
          </CharString>
          <CharString index="41">
            81 hmoveto
            656 -50 callsubr
            -167 26 rlineto
            532 575 -532 vlineto
            -153 -43 callsubr
            643 -30 callgsubr
            -152 25 rlineto
            1194 vlineto
            152 28 -69 callgsubr
            -645 -73 callgsubr
            3 callsubr
            return
          </CharString>
          <CharString index="42">
            91 hmoveto
            590 hlineto
            1 135 -133 11 rlineto
            57 vlineto
            370 383 111 154 rlineto
            -585 vlineto
            -145 -22 rlineto
            -133 609 133 vlineto
            -138 21 rlineto
            return
          </CharString>
          <CharString index="43">
            -25 160 -158 188 401 135 249 214 return
          </CharString>
          <CharString index="44">
            rmoveto
            46 44 80 186 217 vvcurveto
            127 -29 98 -31 35 vhcurveto
            -222 -50 -12 -42 rlineto
            19 -24 36 -92 -146 vvcurveto
            -156 -11 -71 -16 -62 vhcurveto
            6 -26 rlineto
            endchar
          </CharString>
          <CharString index="45">
            hintmask 0000000000000000
            return
          </CharString>
          <CharString index="46">
            520 0 201 -201 209 1087 246 hstemhm
            273 288 787 295 139 callgsubr
            1087 hmoveto
            678 hlineto
            56 426 rlineto
            -164 hlineto
            hintmask 01111000
            -72 -207 -315 -20 179 134 188 308 6 260 rlinecurve
            417 9 -280 224 -403 hhcurveto
            -346 -341 -176 -469 -9 hvcurveto
            hintmask 10111000
            -6 -295 244 -307 169 -99 -338 11 rcurveline
            -73 219 rlineto
            -159 hlineto
            46 -426 rlineto
            696 188 hlineto
            -145 90 -146 263 290 vvcurveto
            304 130 161 272 259 126 -162 -273 -288 -83 -263 -178 -122 vhcurveto
            endchar
          </CharString>
          <CharString index="47">
            606 rmoveto
            401 -202 161 -242 -148 -113 -80 -73 -58 vhcurveto
            107 vlineto
            -54 44 rlineto
            -5 hlineto
            hintmask 11011010
            -355 40 callgsubr
            hintmask 10110110
            122 -40 rlineto
            -1265 vlineto
            -129 -25 rlineto
            -128 627 128 vlineto
            -178 26 rlineto
            172 vlineto
            -6 166 rlineto
            hintmask 11010110
            -9 30 57 -10 48 hhcurveto
            return
          </CharString>
          <CharString index="48">
            -572 -821 rmoveto
            184 hlineto
            155 48 -43 -119 -152 -139 -70 -128 hvcurveto
            -2 hlineto
            -182 -74 92 148 hvcurveto
            return
          </CharString>
          <CharString index="49">
            rmoveto
            195 hlineto
            306 400 -107 87 -296 -258 rlineto
            return
          </CharString>
          <CharString index="50">
            -50 110 rlineto
            -906 -355 164 hlineto
            52 198 376 17 -148 -161 rlineto
            return
          </CharString>
          <CharString index="51">
            -2 callgsubr
            491 1244 rmoveto
            4 21 43 12 73 hhcurveto
            307 125 -247 -385 hvcurveto
            return
          </CharString>
          <CharString index="52">
            480 -11 299 353 487 vvcurveto
            456 -242 266 -512 vhcurveto
            return
          </CharString>
          <CharString index="53">
            1 hlineto
            197 160 106 188 2 hvcurveto
            169 1 -110 126 -234 hhcurveto
            -1 hlineto
            -188 -177 -100 -189 -3 hvcurveto
            -167 -3 101 -133 254 hhcurveto
            5 137 rmoveto
            -114 -49 75 88 95 45 54 119 hvcurveto
            1 hlineto
            116 44 -70 -92 -103 -40 -47 -121 hvcurveto
            return
          </CharString>
          <CharString index="54">
            -52 0 134 397 138 729 124 -124 136 158 callsubr
            404 349 hintmask 00000000
            hintmask 11011100
            77 hmoveto
            759 -50 callsubr
            -265 26 rlineto
            378 vlineto
            -4 17 63 -3 62 hhcurveto
            385 225 204 347 99 callsubr
            hvcurveto
            hintmask 11101100
            -160 -83 -12 -101 hhcurveto
            -306 -141 hlineto
            63 callsubr
            -2 callgsubr
            493 545 rmoveto
            hintmask 11011100
            707 vlineto
            3 33 20 9 78 hhcurveto
            180 93 -96 -228 -313 -122 -92 -145 hvcurveto
            hintmask 11101100
            -75 -34 4 6 -28 hvcurveto
            endchar
          </CharString>
          <CharString index="55">
            829 -23 rmoveto
            189 181 95 69 66 hvcurveto
            -54 123 rlineto
            -38 -61 -96 -46 -139 hhcurveto
            -170 -110 99 263 -13 hvcurveto
            643 hlineto
            11 53 3 74 -3 93 rrcurveto
            270 -13 -144 135 -282 hhcurveto
            -297 -205 -178 -302 -41 hvcurveto
            -95 12 -5 50 42 vvcurveto
            33 23 75 16 19 vhcurveto
            -182 30 rlineto
            -22 -17 -31 -101 -61 vvcurveto
            -142 123 -67 165 -11 vhcurveto
            -334 6 160 -238 377 hhcurveto
            -27 1056 rmoveto
            143 11 -172 -118 1 hvcurveto
            -12 -1 -39 -1 -13 vhcurveto
            -333 hlineto
            293 9 77 61 94 hhcurveto
            return
          </CharString>
          <CharString index="56">
            -15 -29 170 -162 186 997 -20 hstemhm
            200 324 -322 301 380 321 hintmask 00000000
            hintmask 01110100
            202 -373 rmoveto
            hintmask 01101100
            301 420 hlineto
            -41 47 69 -27 87 hhcurveto
            112 96 74 89 35 hvcurveto
            -50 vlineto
            hintmask 10110100
            -69 35 -52 95 94 92 21 18 48 vhcurveto
            131 -109 994 vlineto
            -40 27 -399 -28 1 -115 117 -45 rlineto
            hintmask 01110100
            -709 vlineto
            -48 -20 -53 -52 -101 hhcurveto
            -118 -67 110 90 hvcurveto
            769 vlineto
            -46 28 -382 -28 rlineto
            -116 vlineto
            104 -44 rlineto
            -513 vlineto
            -2 1 -3 1 -3 vhcurveto
            endchar
          </CharString>
          <CharString index="57">
            134 hlineto
            return
          </CharString>
          <CharString index="58">
            -284 -23 203 362 137 347 141 return
          </CharString>
          <CharString index="59">
            132 -107 1493 vlineto
            -63 47 rlineto
            -8 hlineto
            -442 -43 rlineto
            -128 vlineto
            193 -26 rlineto
            -329 vlineto
            return
          </CharString>
          <CharString index="60">
            rmoveto
            -31 66 140 -29 108 hhcurveto
            329 164 149 188 137 -122 107 -199 -12 hvcurveto
            return
          </CharString>
          <CharString index="61">
            -563 -51 callgsubr
            return
          </CharString>
          <CharString index="62">
            -105 callgsubr
            endchar
          </CharString>
          <CharString index="63">
            67 callsubr
            -3 callsubr
            return
          </CharString>
          <CharString index="64">
            -26 -41 callgsubr
            return
          </CharString>
          <CharString index="65">
            136 124 69 88 68 hvcurveto
            -44 vlineto
            -97 44 -18 90 87 109 20 13 62 vhcurveto
            return
          </CharString>
          <CharString index="66">
            110 56 52 91 89 vvcurveto
            135 -110 119 -266 -222 -178 -113 -175 -124 64 -78 84 -57 vhcurveto
            return
          </CharString>
          <CharString index="67">
            rmoveto
            32 callgsubr
            hintmask 0001001001010000
            -55 callsubr
            hintmask 1000001001010000
            4 callsubr
            hintmask 1000000101010000
            -73 callgsubr
            hintmask 1000010001010000
            63 callsubr
            hintmask 0010100001010000
            -56 callsubr
            hintmask 0100001001010000
            -28 callgsubr
          </CharString>
          <CharString index="68">
            -46 callsubr
            161 -21 hstemhm
            245 363 -352 339 hintmask 00000000
            hintmask 01100100
            91 hmoveto
            674 hlineto
            hintmask 10100100
            132 vlineto
            hintmask 01100100
            -96 callgsubr
            hintmask 10100100
            -165 -26 rlineto
            hintmask 00011000
            319 -20 callgsubr
          </CharString>
          <CharString index="69">
            738 vlineto
            39 48 83 41 82 hhcurveto
            128 30 -73 -189 166 callsubr
            -106 -20 rlineto
            -133 558 133 vlineto
            -122 20 rlineto
            556 vlineto
            70 -4 62 -9 54 vhcurveto
            36 49 78 40 72 hhcurveto
            130 35 -73 -196 hvcurveto
            -549 vlineto
            -93 -20 rlineto
            -133 547 133 vlineto
            -125 19 rlineto
            558 vlineto
            313 -86 139 -248 -150 -156 -73 -81 -85 vhcurveto
            105 -47 -87 49 -149 hhcurveto
            -117 -198 -70 -90 -91 hvcurveto
            1 47 rlineto
            return
          </CharString>
          <CharString index="70">
            rmoveto
            374 326 273 524 499 -271 265 -390 -286 -152 -74 -5 -115 hvcurveto
            -3 -328 215 -9 48 174 rlineto
            56 34 79 47 129 hhcurveto
            208 140 -221 -357 14 hvcurveto
            -906 2 rlineto
            -12 -51 -6 -72 -127 vvcurveto
            -411 2 265 -185 307 hhcurveto
            51 163 rmoveto
            -220 -69 235 179 41 2 29 2 37 hvcurveto
            588 -1 rlineto
            -367 -5 -108 -153 -190 hhcurveto
            endchar
          </CharString>
          <CharString index="71">
            324 hintmask 00000000
            hintmask 01100101
            1019 -23 17 callsubr
            hintmask 10100101
            -75 callgsubr
            hintmask 01100101
            8 callgsubr
            return
          </CharString>
          <CharString index="72">
            -323 592 rmoveto
            77 74 44 84 109 75 -66 -97 -52 -18 -70 -63 -44 vhcurveto
            -136 56 -125 50 102 vvcurveto
            return
          </CharString>
          <CharString index="73">
            -106 callsubr
            hintmask 00000000
            -24 1063 -81 callgsubr
            hintmask 00011010
            30 callgsubr
          </CharString>
          <CharString index="74">
            rmoveto
            417 12 rlineto
            -291 -16 -103 -91 -143 hhcurveto
            -57 -50 12 17 -42 hvcurveto
            -45 154 rlineto
            -155 hlineto
            8 -216 rlineto
            -64 78 148 -52 181 hhcurveto
            335 207 228 366 2 hvcurveto
            390 2 -257 209 -322 hhcurveto
            -130 -183 -33 -25 -60 hvcurveto
            5 -269 rlineto
            181 hlineto
            40 127 rlineto
            35 27 39 27 76 hhcurveto
            141 81 -135 -236 12 hvcurveto
            -135 3 -243 8 -39 1 rrcurveto
            endchar
          </CharString>
          <CharString index="75">
            1136 hlineto
            46 456 -173 34 -121 -309 -583 -42 137 127 rlineto
            return
          </CharString>
          <CharString index="76">
            -28 rlineto
            -1194 vlineto
            return
          </CharString>
          <CharString index="77">
            30 0 -10 callsubr
            return
          </CharString>
          <CharString index="78">
            -94 callgsubr
            endchar
          </CharString>
          <CharString index="79">
            hmoveto
            783 -50 callsubr
            -217 26 rlineto
            449 vlineto
            394 746 rlineto
            return
          </CharString>
          <CharString index="80">
            -131 vlineto
            return
          </CharString>
          <CharString index="81">
            rmoveto
            1 hlineto
            return
          </CharString>
          <CharString index="82">
            12 -58 -64 7 -69 hhcurveto
            -423 1 -282 -308 -479 vvcurveto
            -335 107 -258 236 -117 vhcurveto
            -96 -242 rlineto
            445 1600 rmoveto
            57 51 -15 -32 43 hvcurveto
            -377 -1101 rlineto
            -61 105 -33 166 231 vvcurveto
            -11 callsubr
            vhcurveto
            320 -620 rmoveto
            -10 callgsubr
            -54 -48 15 30 -41 vhcurveto
            376 1099 rlineto
            57 -100 31 -157 -220 vvcurveto
            return
          </CharString>
          <CharString index="83">
            48 10 135 136 152 vvcurveto
            return
          </CharString>
          <CharString index="84">
            -30 callgsubr
            -76 26 -104 36 -150 553 -257 69 rlinecurve
            384 535 171 28 -69 callgsubr
            -555 -73 callgsubr
            141 -29 -338 -527 rlineto
            -138 527 31 callgsubr
            -134 663 132 vlineto
            118 callgsubr
            endchar
          </CharString>
          <CharString index="85">
            -510 234 297 -21 1007 131 return
          </CharString>
          <CharString index="86">
            530 383 rmoveto
            143 69 38 37 85 hvcurveto
            -298 vlineto
            -176 -43 callsubr
            630 -30 callgsubr
            -133 25 rlineto
            823 vlineto
            131 -34 callgsubr
            -572 -27 callsubr
            120 -26 rlineto
            -388 vlineto
            -25 -35 -69 -26 -90 hhcurveto
            -156 -34 53 273 hvcurveto
            114 vlineto
            106 -34 callgsubr
            -543 -27 callsubr
            105 -25 rlineto
            -167 vlineto
            -334 165 -98 254 vhcurveto
            return
          </CharString>
          <CharString index="87">
            169 -13 callsubr
            return
          </CharString>
          <CharString index="88">
            63 565 rmoveto
            -365 201 -223 343 302 271 188 415 365 -201 223 -343 -301 -272 -199 -404 vhcurveto
            562 -445 rmoveto
            -141 -63 148 270 -7 hvcurveto
            413 hlineto
            -288 -3 -65 -130 -134 hhcurveto
            -5 905 rmoveto
            135 59 -134 -245 11 hvcurveto
            -410 hlineto
            261 8 68 118 129 hhcurveto
            return
          </CharString>
          <CharString index="89">
            -158 -63 18 88 25 10 41 16 32 hvcurveto
            -10 48 55 -4 61 hhcurveto
            1 hlineto
            return
          </CharString>
          <CharString index="90">
            372 hintmask 11001010
            742 -11 callgsubr
            return
          </CharString>
          <CharString index="91">
            rlineto
            -1192 vlineto
            return
          </CharString>
          <CharString index="92">
            187 -25 rlineto
            -426 -75 -362 -110 -58 -41 4 6 -30 vhcurveto
            18 -205 rlineto
            -7 28 40 -6 41 hhcurveto
            132 52 61 81 35 hvcurveto
            60 112 63 281 361 vvcurveto
            return
          </CharString>
          <CharString index="93">
            rmoveto
            152 87 111 105 52 hvcurveto
            -105 89 rlineto
            -38 -32 -30 -67 -91 hhcurveto
            return
          </CharString>
          <CharString index="94">
            -141 141 return
          </CharString>
          <CharString index="95">
            -94 callsubr
            endchar
          </CharString>
          <CharString index="96">
            441 120 205 200 return
          </CharString>
          <CharString index="97">
            134 273 154 968 -20 return
          </CharString>
          <CharString index="98">
            6 -36 -38 3 -40 hhcurveto
            -301 -272 -199 -404 hvcurveto
            351 25 rmoveto
            300 68 135 138 37 31 -11 -20 27 vhcurveto
            -246 -765 rlineto
            -38 79 -17 122 160 vvcurveto
            211 -470 rmoveto
            -35 -30 9 17 -25 hvcurveto
            245 756 rlineto
            33 -80 14 -117 -150 vvcurveto
            -300 -65 -135 -137 vhcurveto
            return
          </CharString>
          <CharString index="99">
            -173 88 -79 181 vhcurveto
            2 hlineto
            151 165 59 58 70 hvcurveto
            return
          </CharString>
          <CharString index="100">
            309 239 178 313 275 -174 168 -347 hvcurveto
            -258 1 rlineto
            437 vlineto
            216 33 rlineto
            133 -706 -133 vlineto
            154 -31 rlineto
            return
          </CharString>
          <CharString index="101">
            rmoveto
            231 196 158 288 244 -107 195 -284 -235 -190 -163 -288 -236 136 -198 253 hvcurveto
            18 135 rmoveto
            -107 -32 167 144 174 33 129 111 106 30 -153 -159 1 hvcurveto
            -174 -31 -128 -111 vhcurveto
            155 -777 rmoveto
            210 hlineto
            return
          </CharString>
          <CharString index="102">
            172 -29 rlineto
            -937 vlineto
            -227 -15 -100 -27 -87 vhcurveto
            return
          </CharString>
          <CharString index="103">
            141 -1295 vlineto
            hintmask 01011100
            -73 callgsubr
            hintmask 10101100
            250 -29 rlineto
            -107 vlineto
            -616 -56 -204 -65 -139 vhcurveto
            -73 -35 -39 -20 -57 hhcurveto
            -80 -40 4 3 -44 hvcurveto
            23 -201 rlineto
            -7 36 60 -6 61 hhcurveto
            115 80 50 112 60 hvcurveto
            94 182 52 389 482 vvcurveto
            151 361 vlineto
            return
          </CharString>
          <CharString index="104">
            160 1221 141 return
          </CharString>
          <CharString index="105">
            798 -50 callsubr
            -303 26 rlineto
            503 vlineto
            270 -8 44 -182 rlineto
            148 533 -149 hlineto
            -43 -178 -270 -4 rlineto
            562 vlineto
            403 -23 79 -218 rlineto
            181 hlineto
            -23 377 rlineto
            -1139 -141 hlineto
            160 -31 callsubr
            75 callsubr
          </CharString>
          <CharString index="106">
            251 190 128 192 -2 hvcurveto
            -1 135 -104 75 -121 57 rrcurveto
            return
          </CharString>
          <CharString index="107">
            vlineto
            hintmask 0101001011000000
            -156 147 callgsubr
            326 vlineto
            80 137 -13 -3 107 hvcurveto
            hintmask 1001001011000000
            -55 callsubr
            hintmask 1001000111000000
            4 callsubr
            hintmask 1001010011000000
            -73 callgsubr
            hintmask 1001100011000000
            149 -28 rlineto
            return
          </CharString>
          <CharString index="108">
            29 145 rlineto
            40 17 61 46 101 hhcurveto
            127 45 -52 -98 -119 -72 -66 -117 -19 hvcurveto
            -77 -8 -3 -166 rlineto
            6 21 77 14 21 hhcurveto
            return
          </CharString>
          <CharString index="109">
            4 -18 99 -35 rlineto
            3 hlineto
            return
          </CharString>
          <CharString index="110">
            155 -29 rlineto
            -491 -575 492 vlineto
            167 28 -69 callgsubr
            -652 -73 callgsubr
            148 -31 callsubr
            -152 -25 rlineto
            return
          </CharString>
          <CharString index="111">
            -130 -99 -13 -128 hhcurveto
            -311 hlineto
            return
          </CharString>
          <CharString index="112">
            89 50 237 179 68 108 -182 152 rcurveline
            -321 -402 rlineto
            622 -87 rmoveto
            return
          </CharString>
          <CharString index="113">
            123 -40 rlineto
            -770 vlineto
            -116 -18 rlineto
            return
          </CharString>
          <CharString index="114">
            -1193 vlineto
            return
          </CharString>
          <CharString index="115">
            117 -30 rlineto
            -332 vlineto
            -364 169 -98 289 117 135 31 61 86 vhcurveto
            return
          </CharString>
          <CharString index="116">
            600 vlineto
            4 19 35 6 76 hhcurveto
            193 70 -100 -184 -227 -89 -103 -144 hvcurveto
            return
          </CharString>
          <CharString index="117">
            -24 -244 -338 -17 111 138 351 563 -48 56 rlineto
            -234 hlineto
            -83 -164 -274 -527 -52 -93 rrcurveto
            return
          </CharString>
          <CharString index="118">
            1653 -56 callgsubr
            return
          </CharString>
          <CharString index="119">
            424 -743 rlineto
            -450 vlineto
            -209 -25 rlineto
            return
          </CharString>
          <CharString index="120">
            -115 -44 -76 -76 -114 vvcurveto
            -206 228 -90 216 vhcurveto
            return
          </CharString>
          <CharString index="121">
            289 -28 callsubr
            return
          </CharString>
          <CharString index="122">
            rmoveto
            -19 63 165 -57 249 hhcurveto
            369 169 140 222 -3 hvcurveto
            -2 142 -97 105 -203 21 rrcurveto
            return
          </CharString>
          <CharString index="123">
            -23 139 1287 138 return
          </CharString>
          <CharString index="124">
            rmoveto
            111 92 23 12 50 hvcurveto
            return
          </CharString>
          <CharString index="125">
            -78 callsubr
            endchar
          </CharString>
          <CharString index="126">
            rmoveto
            618 196 -618 hlineto
            endchar
          </CharString>
          <CharString index="127">
            236 -23 64 -303 rlineto
            186 hlineto
            -10 457 rlineto
            -947 -130 hlineto
            return
          </CharString>
          <CharString index="128">
            rmoveto
            20 -29 41 -83 -69 vvcurveto
            return
          </CharString>
          <CharString index="129">
            172 34 rlineto
            127 -560 -127 vlineto
            157 -26 -377 -399 5 97 rlineto
            954 vlineto
            -60 44 rlineto
            -4 hlineto
            -400 -49 116 callsubr
            141 -26 rlineto
            -1329 vlineto
            -117 -19 rlineto
            endchar
          </CharString>
          <CharString index="130">
            94 50 245 193 54 98 -174 148 rcurveline
            -328 -402 rlineto
            return
          </CharString>
          <CharString index="131">
            -136 vlineto
            156 -30 rlineto
            -344 vlineto
            -141 return
          </CharString>
          <CharString index="132">
            hstemhm
            69 317 -282 327 -269 235 return
          </CharString>
          <CharString index="133">
            340 188 340 return
          </CharString>
          <CharString index="134">
            209 51 -143 -139 -177 -76 -133 -155 -110 -67 27 28 -39 hvcurveto
            -73 280 rlineto
            return
          </CharString>
          <CharString index="135">
            219 -176 241 323 276 -257 193 return
          </CharString>
          <CharString index="136">
            152 38 -95 -105 -102 -53 -102 -158 -76 -75 18 39 -27 hvcurveto
            -40 155 rlineto
            -193 hlineto
            endchar
          </CharString>
          <CharString index="137">
            rmoveto
            675 -441 93 144 -413 380 411 388 -91 146 -675 -452 rlineto
            return
          </CharString>
          <CharString index="138">
            150 56 86 110 110 vvcurveto
            173 -140 98 -332 vhcurveto
            -218 -99 -55 -138 hhcurveto
            return
          </CharString>
          <CharString index="139">
            106 -16 58 callgsubr
            return
          </CharString>
          <CharString index="140">
            1490 -81 callgsubr
            return
          </CharString>
          <CharString index="141">
            -25 165 -163 184 868 139 -14 -20 return
          </CharString>
          <CharString index="142">
            174 29 rlineto
            140 144 callgsubr
            return
          </CharString>
          <CharString index="143">
            145 -34 callgsubr
            -601 -130 vlineto
            return
          </CharString>
          <CharString index="144">
            vhcurveto
            -1 hlineto
            -120 return
          </CharString>
          <CharString index="145">
            hhcurveto
            -65 -54 23 24 -17 hvcurveto
            749 vlineto
            35 32 63 37 73 hhcurveto
            return
          </CharString>
          <CharString index="146">
            73 0 49 callsubr
            return
          </CharString>
          <CharString index="147">
            123 -34 callgsubr
            -489 -27 callsubr
            163 -26 -241 -628 -26 -89 -27 88 -237 630 163 -34 callgsubr
            -636 -27 callsubr
            113 -25 return
          </CharString>
          <CharString index="148">
            -20 callsubr
            -128 141 -13 -20 62 callgsubr
            return
          </CharString>
          <CharString index="149">
            90 16 callsubr
            return
          </CharString>
          <CharString index="150">
            0 141 callsubr
            return
          </CharString>
          <CharString index="151">
            -68 callgsubr
            145 return
          </CharString>
          <CharString index="152">
            152 837 148 -109 110 return
          </CharString>
          <CharString index="153">
            141 131 -13 callgsubr
            return
          </CharString>
          <CharString index="154">
            0 134 1247 141 return
          </CharString>
          <CharString index="155">
            143 -28 rlineto
            -1193 -440 1193 vlineto
            147 28 -69 callgsubr
            -623 143 callgsubr
            -27 rlineto
            -1194 -446 1193 vlineto
            return
          </CharString>
          <CharString index="156">
            134 515 136 568 -20 callsubr
            -123 136 -13 -20 return
          </CharString>
          <CharString index="157">
            31 rlineto
            136 -634 24 callsubr
            -64 -83 return
          </CharString>
          <CharString index="158">
            -12 58 63 -6 69 hhcurveto
            182 callsubr
            334 -107 246 -240 111 vhcurveto
            87 223 -143 45 -85 -221 rlineto
            return
          </CharString>
          <CharString index="159">
            300 -288 397 return
          </CharString>
          <CharString index="160">
            204 175 vlineto
            1 176 -176 -9 rlineto
            249 vlineto
            -205 -17 rlineto
            return
          </CharString>
          <CharString index="161">
            rmoveto
            -675 452 -91 -146 411 -388 -413 -380 93 -144 return
          </CharString>
          <CharString index="162">
            152 -134 134 125 callgsubr
            hstemhm
            322 155 279 327 return
          </CharString>
          <CharString index="163">
            -164 -43 callsubr
            656 -30 callgsubr
            return
          </CharString>
          <CharString index="164">
            65 callgsubr
            1222 141 return
          </CharString>
          <CharString index="165">
            -169 -103 -136 -88 -39 hvcurveto
            endchar
          </CharString>
          <CharString index="166">
            401 306 334 406 403 307 -329 -406 -403 -307 -333 -403 -403 -309 329 407 vhcurveto
            return
          </CharString>
          <CharString index="167">
            496 155 190 278 182 -124 159 -273 8 hvcurveto
            return
          </CharString>
          <CharString index="168">
            -66 0 139 1241 146 -120 121 return
          </CharString>
          <CharString index="169">
            -351 -23 199 846 146 return
          </CharString>
          <CharString index="170">
            149 -31 callsubr
            return
          </CharString>
          <CharString index="171">
            156 125 callgsubr
            return
          </CharString>
          <CharString index="172">
            71 callgsubr
            -62 callsubr
            return
          </CharString>
          <CharString index="173">
            rmoveto
            136 129 112 144 153 -103 104 -139 -138 -129 -105 -152 -139 105 -117 139 hvcurveto
            endchar
          </CharString>
          <CharString index="174">
            132 -132 return
          </CharString>
          <CharString index="175">
            73 vlineto
            -55 44 rlineto
            -5 hlineto
            return
          </CharString>
          <CharString index="176">
            0 134 837 191 return
          </CharString>
          <CharString index="177">
            -53 -526 86 -59 rlineto
            15 26 84 33 89 hhcurveto
            134 62 -63 -104 -148 -138 -79 -202 -36 -51 2 6 -28 hvcurveto
            return
          </CharString>
          <CharString index="178">
            36 callgsubr
            hstemhm
            233 340 return
          </CharString>
          <CharString index="179">
            -141 hlineto
            159 return
          </CharString>
          <CharString index="180">
            127 80 -157 171 hhcurveto
            return
          </CharString>
          <CharString index="181">
            hstemhm
            97 421 -298 330 return
          </CharString>
          <CharString index="182">
            -2 callgsubr
            endchar
          </CharString>
          <CharString index="183">
            110 callgsubr
            473 165 361 331 return
          </CharString>
          <CharString index="184">
            3 callgsubr
            507 134 return
          </CharString>
          <CharString index="185">
            166 hstemhm
            564 272 -206 295 return
          </CharString>
          <CharString index="186">
            0 134 565 126 125 callsubr
            return
          </CharString>
          <CharString index="187">
            334 137 hlineto
            -92 23 -95 31 return
          </CharString>
          <CharString index="188">
            -27 callsubr
            135 -26 rlineto
            return
          </CharString>
          <CharString index="189">
            -318 -462 317 vlineto
            142 124 callsubr
            -597 183 callgsubr
            return
          </CharString>
          <CharString index="190">
            hstemhm
            165 324 return
          </CharString>
          <CharString index="191">
            -23 188 -188 203 362 137 -108 130 245 218 -138 141 hstemhm
            return
          </CharString>
          <CharString index="192">
            6 69 callsubr
            4 -20 return
          </CharString>
          <CharString index="193">
            185 609 172 -13 callsubr
            return
          </CharString>
          <CharString index="194">
            132 -24 rlineto
            -821 vlineto
            -126 -25 rlineto
            -603 421 rmoveto
            157 63 -90 -131 hvcurveto
            return
          </CharString>
          <CharString index="195">
            -102 162 callgsubr
            return
          </CharString>
          <CharString index="196">
            206 rmoveto
            478 hlineto
            1 -204 rlineto
            231 hlineto
            return
          </CharString>
          <CharString index="197">
            719 -499 142 callsubr
            return
          </CharString>
          <CharString index="198">
            -158 26 rlineto
            1193 vlineto
            return
          </CharString>
          <CharString index="199">
            rmoveto
            33 28 46 64 83 hhcurveto
            return
          </CharString>
          <CharString index="200">
            131 hstemhm
            223 return
          </CharString>
          <CharString index="201">
            319 183 117 260 216 -142 127 -318 hvcurveto
            -215 279 hlineto
            return
          </CharString>
          <CharString index="202">
            63 565 rmoveto
            -269 109 -191 194 -83 vhcurveto
            -84 -240 140 -39 rlineto
            return
          </CharString>
          <CharString index="203">
            516 157 callsubr
            134 421 146 279 158 -132 132 return
          </CharString>
          <CharString index="204" raw="1">
            e91d1326 dd58d60b  
          </CharString>
          <CharString index="205">
            130 96 -120 -290 -3 hvcurveto
            return
          </CharString>
          <CharString index="206">
            288 -133 163 -456 1 return
          </CharString>
          <CharString index="207">
            141 123 -45 callgsubr
            return
          </CharString>
          <CharString index="208">
            -68 callgsubr
            160 return
          </CharString>
          <CharString index="209">
            vlineto
            137 124 callsubr
            -1329 -27 callsubr
            136 -25 rlineto
            -823 vlineto
            return
          </CharString>
          <CharString index="210">
            -102 -103 -35 -18 -35 hvcurveto
            38 246 rlineto
            487 hlineto
            12 192 rlineto
            -667 hlineto
            return
          </CharString>
          <CharString index="211">
            133 -133 return
          </CharString>
          <CharString index="212">
            801 -867 -44 callgsubr
            return
          </CharString>
          <CharString index="213">
            161 1202 158 -137 138 return
          </CharString>
          <CharString index="214">
            rmoveto
            191 hlineto
            54 834 rlineto
            -298 hlineto
            return
          </CharString>
          <CharString index="215">
            0 133 833 170 333 243 return
          </CharString>
          <CharString index="216">
            102 callgsubr
            134 return
          </CharString>
          <CharString index="217">
            372 -111 26 callsubr
            -117 372 hintmask 00000000
            hintmask 00010110
            return
          </CharString>
          <CharString index="218">
            0 157 226 159 440 137 callsubr
            111 return
          </CharString>
          <CharString index="219">
            423 1146 rmoveto
            189 647 rlineto
            -306 hlineto
            -90 -647 rlineto
            return
          </CharString>
          <CharString index="220">
            0 134 1232 156 return
          </CharString>
          <CharString index="221">
            733 1140 rlineto
            return
          </CharString>
          <CharString index="222">
            162 28 -69 callgsubr
            return
          </CharString>
          <CharString index="223">
            rlineto
            -123 vlineto
            return
          </CharString>
          <CharString index="224">
            -76 242 202 344 201 hstem
            203 936 vstem
            203 return
          </CharString>
          <CharString index="225">
            -136 -70 -78 -170 -48 -28 3 4 -23 vhcurveto
            428 vlineto
            endchar
          </CharString>
          <CharString index="226">
            131 -13 callgsubr
            233 return
          </CharString>
          <CharString index="227">
            hstem
            192 330 376 324 vstem
            return
          </CharString>
          <CharString index="228">
            136 592 153 533 136 return
          </CharString>
          <CharString index="229">
            -499 -21 497 return
          </CharString>
          <CharString index="230">
            510 737 rlineto
            return
          </CharString>
          <CharString index="231">
            26 -15 callgsubr
            return
          </CharString>
          <CharString index="232">
            556 141 return
          </CharString>
          <CharString index="233">
            -91 47 callsubr
            113 -45 callgsubr
            return
          </CharString>
          <CharString index="234">
            142 431 165 176 callgsubr
            47 356 417 return
          </CharString>
          <CharString index="235">
            -148 -148 599 -600 600 600 -148 148 return
          </CharString>
          <CharString index="236">
            -162 -25 rlineto
            endchar
          </CharString>
          <CharString index="237">
            hstemhm
            58 347 return
          </CharString>
          <CharString index="238">
            86 callsubr
            hstemhm
            141 336 return
          </CharString>
          <CharString index="239">
            104 callsubr
            154 856 127 hstemhm
            191 323 return
          </CharString>
          <CharString index="240">
            -119 406 rlineto
            -450 -97 hlineto
            106 -9 -52 -597 rlineto
            return
          </CharString>
          <CharString index="241">
            -20 -41 callgsubr
            600 -30 callgsubr
            return
          </CharString>
          <CharString index="242">
            -16 141 165 callsubr
            return
          </CharString>
          <CharString index="243">
            113 -45 callgsubr
            233 return
          </CharString>
          <CharString index="244">
            64 callsubr
            hstemhm
            return
          </CharString>
          <CharString index="245">
            0 134 558 169 return
          </CharString>
          <CharString index="246">
            155 -130 130 return
          </CharString>
          <CharString index="247">
            177 callgsubr
            hstemhm
            return
          </CharString>
          <CharString index="248">
            -68 callgsubr
            154 return
          </CharString>
          <CharString index="249">
            336 hintmask 00000000
            return
          </CharString>
          <CharString index="250">
            hstemhm
            233 338 return
          </CharString>
          <CharString index="251">
            30 -69 callgsubr
            return
          </CharString>
          <CharString index="252">
            561 417 337 291 146 hintmask 00000000
            hintmask 11110011
            return
          </CharString>
          <CharString index="253">
            -132 -19 rlineto
            return
          </CharString>
          <CharString index="254">
            hstemhm
            63 351 return
          </CharString>
          <CharString index="255">
            81 -23 139 -100 -21 1408 138 -19 -20 return
          </CharString>
          <CharString index="256">
            -720 167 callsubr
            return
          </CharString>
          <CharString index="257">
            -136 0 134 525 167 548 147 return
          </CharString>
          <CharString index="258">
            -326 -23 149 376 159 371 138 return
          </CharString>
          <CharString index="259">
            761 79 callsubr
            return
          </CharString>
          <CharString index="260">
            -166 26 rlineto
            1208 518 -1208 vlineto
            return
          </CharString>
          <CharString index="261">
            346 217 111 253 return
          </CharString>
          <CharString index="262">
            -254 189 -111 355 return
          </CharString>
          <CharString index="263">
            -531 -363 1962 hstem
            return
          </CharString>
          <CharString index="264">
            -19 139 -120 return
          </CharString>
          <CharString index="265">
            hstemhm
            233 337 return
          </CharString>
          <CharString index="266">
            -24 callsubr
            -62 callsubr
            return
          </CharString>
          <CharString index="267">
            82 -23 139 584 132 571 138 return
          </CharString>
          <CharString index="268">
            109 hmoveto
            555 133 hlineto
            -115 20 rlineto
            return
          </CharString>
          <CharString index="269">
            -29 -23 163 520 161 578 139 return
          </CharString>
          <CharString index="270">
            hintmask 00000000
            hintmask 10110000
            return
          </CharString>
          <CharString index="271">
            374 -342 326 return
          </CharString>
          <CharString index="272">
            -125 -68 callgsubr
            return
          </CharString>
          <CharString index="273">
            hvcurveto
            -556 vlineto
            return
          </CharString>
          <CharString index="274">
            44 callgsubr
            1664 -20 return
          </CharString>
          <CharString index="275">
            -23 143 418 108 379 143 return
          </CharString>
          <CharString index="276">
            0 134 249 159 465 131 return
          </CharString>
          <CharString index="277">
            -132 25 rlineto
            841 403 -841 vlineto
            return
          </CharString>
          <CharString index="278">
            43 callgsubr
            endchar
          </CharString>
          <CharString index="279">
            0 67 callsubr
            160 return
          </CharString>
          <CharString index="280">
            66 -1 92 rrcurveto
            264 -7 return
          </CharString>
          <CharString index="281">
            -27 callsubr
            130 -25 rlineto
            return
          </CharString>
          <CharString index="282">
            326 hintmask 00000000
            return
          </CharString>
          <CharString index="283">
            -308 206 vlineto
            return
          </CharString>
          <CharString index="284">
            hstemhm
            256 339 return
          </CharString>
          <CharString index="285">
            -133 133 return
          </CharString>
          <CharString index="286">
            513 hstem
            178 509 vstem
            422 return
          </CharString>
          <CharString index="287">
            933 hstem
            192 261 vstem
            427 return
          </CharString>
          <CharString index="288">
            66 -121 -281 -370 -75 -188 return
          </CharString>
          <CharString index="289">
            421 5 281 322 480 vvcurveto
            return
          </CharString>
          <CharString index="290">
            rmoveto
            885 206 -885 hlineto
            endchar
          </CharString>
          <CharString index="291">
            -146 -20 rlineto
            endchar
          </CharString>
          <CharString index="292">
            -156 -26 rlineto
            return
          </CharString>
        <CharString name=".notdef">
          357 0 252 -231 -21 hstemhm
          177 262 894 260 hintmask 00000000
          hintmask 01110000
          440 387 rmoveto
          343 318 -344 338 114 116 333 -352 328 351 119 -116 -348 -334 348 -343 rlineto
          hintmask 10110000
          -113 -113 -337 353 -324 -353 rlineto
          -382 -252 rmoveto
          1416 1416 -1416 hlineto
          endchar
        </CharString>
        <CharString name="A">
          -30 callsubr
          hstemhm
          -41 540 hintmask 00000000
          hintmask 11110000
          -85 callgsubr
          endchar
        </CharString>
        <CharString name="AE">
          517 56 callgsubr
          hstemhm
          -165 145 callsubr
          656 -48 callgsubr
        </CharString>
        <CharString name="AEacute">
          517 56 callgsubr
          114 -45 callgsubr
          813 337 -310 519 82 146 hintmask 0000011010000000
          957 -73 callsubr
          -62 callsubr
          -184 -1702 rmoveto
          1198 hlineto
          70 377 -185 53 -133 -258 -456 -27 rlineto
          552 vlineto
          256 -6 35 -172 rlineto
          146 505 -147 hlineto
          -35 -163 -255 -7 rlineto
          hintmask 1111000101000000
          533 vlineto
          407 -19 70 -200 rlineto
          162 hlineto
          hintmask 1110100101000000
          -28 354 rlineto
          -1535 -141 hlineto
          253 -28 -500 -1193 -144 -28 rlineto
          -132 561 132 vlineto
          -149 26 97 261 rlineto
          469 -262 hlineto
          -157 -25 rlineto
          -59 965 rmoveto
          104 276 rlineto
          112 -795 -410 hlineto
          endchar
        </CharString>
        <CharString name="Aacute">
          -30 callsubr
          126 -45 callgsubr
          -37 540 67 519 -9 callgsubr
          230 1053 -95 callgsubr
          endchar
        </CharString>
        <CharString name="Abreve">
          -30 callsubr
          118 207 hstemhm
          -37 540 -150 141 callgsubr
          hintmask 00000000
          hintmask 11101000
          -85 callsubr
          hintmask 00010110
          273 1066 7 callgsubr
        </CharString>
        <CharString name="Acircumflex">
          -30 callsubr
          136 -45 callgsubr
          -37 540 -179 801 hintmask 00000000
          hintmask 11100100
          -36 -34 callsubr
        </CharString>
        <CharString name="Adieresis">
          -30 callsubr
          144 -13 callgsubr
          -37 540 -210 340 188 340 -6 callgsubr
          hintmask 00000000
          -16 1092 -56 callgsubr
          hintmask 00001011
          -80 callsubr
          hintmask 00010011
          -84 callsubr
          hintmask 00001011
          -79 callgsubr
          hintmask 00010011
          75 callgsubr
        </CharString>
        <CharString name="Agrave">
          -30 callsubr
          126 -45 callgsubr
          -37 540 -114 518 -9 callgsubr
          332 1053 18 callsubr
        </CharString>
        <CharString name="Amacron">
          -30 callsubr
          211 195 hstemhm
          -37 540 -97 638 hintmask 00000000
          hintmask 11101000
          -85 callsubr
          hintmask 00010100
          -51 1159 129 callgsubr
        </CharString>
        <CharString name="Aogonek">
          30 168 callgsubr
          273 154 968 -20 hstemhm
          -41 540 41 586 -470 740 -533 30 -62 callsubr
          hintmask 0111110010000000
          -40 hmoveto
          539 -50 callsubr
          -159 22 70 251 rlineto
          503 hlineto
          72 -247 -144 -43 callsubr
          318 vlineto
          -167 -56 -129 -136 -117 vvcurveto
          -133 122 -71 159 vhcurveto
          hintmask 0111110100000000
          84 111 25 43 57 hvcurveto
          hintmask 1011110100000000
          157 callgsubr
          -33 -8 -47 hhcurveto
          hintmask 1011111000000000
          -86 -59 36 69 75 90 100 129 50 hvcurveto
          129 -50 callsubr
          -116 25 rlineto
          hintmask 0111110010000000
          -465 1370 rlineto
          hintmask 0111111000000000
          -353 hlineto
          -462 -1369 -120 -26 rlineto
          hintmask 0111110100000000
          667 1046 rmoveto
          31 141 31 -141 181 -619 rlineto
          -415 hlineto
          endchar
        </CharString>
        <CharString name="Aring">
          30 0 134 273 154 924 118 -74 -20 385 120 hstemhm
          -41 540 -129 203 306 203 hintmask 00000000
          hintmask 11010100
          -85 callgsubr
          hintmask 00101011
          274 1042 -55 callgsubr
        </CharString>
        <CharString name="Atilde">
          -30 callsubr
          144 63 callgsubr
          -37 540 -241 930 hintmask 00000000
          hintmask 11100010
          -85 callsubr
          hintmask 00000000
          444 1092 -14 callsubr
          hintmask 00010001
          -42 callgsubr
          hintmask 00001101
          73 callsubr
          endchar
        </CharString>
        <CharString name="B">
          -77 callsubr
        </CharString>
        <CharString name="C">
          -62 -23 69 callgsubr
          hstem
          55 384 vstem
          800 -23 -99 callsubr
          endchar
        </CharString>
        <CharString name="CR">
          -1413 endchar
        </CharString>
        <CharString name="Cacute">
          -62 -23 69 callgsubr
          97 -45 callgsubr
          55 384 193 519 hintmask 11001000
          800 -23 -99 callsubr
          hintmask 00110100
          -51 1637 -95 callgsubr
          endchar
        </CharString>
        <CharString name="Ccaron">
          -62 -23 69 callgsubr
          108 368 hstemhm
          55 384 -32 775 hintmask 11010000
          800 -23 -99 callsubr
          hintmask 00101000
          -113 1669 0 callgsubr
        </CharString>
        <CharString name="Ccedilla">
          -62 122 callsubr
          69 callgsubr
          hstemhm
          55 384 297 223 hintmask 01110000
          800 -23 -99 callsubr
          hintmask 00000000
          -125 29 21 callsubr
          hintmask 10001000
          -97 callgsubr
          endchar
        </CharString>
        <CharString name="Ccircumflex">
          -62 -23 69 callgsubr
          107 -45 callgsubr
          55 384 -52 801 hintmask 11001000
          800 -23 -99 callsubr
          hintmask 00000000
          -304 1647 -81 callgsubr
          hintmask 00110100
          30 callgsubr
        </CharString>
        <CharString name="Cdotaccent">
          -62 -23 69 callgsubr
          145 -21 hstemhm
          55 384 169 363 hintmask 00101000
          773 1662 -94 callsubr
          hintmask 11010000
          27 -1685 -99 callsubr
          endchar
        </CharString>
        <CharString name="D">
          10 callgsubr
          124 callgsubr
          569 369 hintmask 0000000000000000
          hintmask 0001001011000000
          77 hmoveto
          32 callgsubr
          hintmask 1000001011000000
          -55 callsubr
          hintmask 1000000111000000
          4 callsubr
          hintmask 1000010011000000
          -73 callgsubr
          hintmask 0010100011000000
          63 callsubr
          hintmask 0100001011000000
          -56 callsubr
          hintmask 1000001011000000
          -28 callgsubr
        </CharString>
        <CharString name="Dcaron">
          10 callgsubr
          144 368 124 callgsubr
          -152 775 -54 369 hintmask 0000000010100000
          696 1646 -78 callgsubr
          -62 callsubr
          -339 -1926 -40 callsubr
        </CharString>
        <CharString name="Dcroat">
          155 -16 148 -132 65 callgsubr
          546 151 497 76 callgsubr
          78 705 rmoveto
          155 hlineto
          hintmask 0011001011000000
          -546 0 callsubr
          -497 -155 vlineto
          hintmask 1001001011000000
          490 522 rmoveto
          4 21 43 12 73 hhcurveto
          307 125 -247 -385 -436 -157 -191 -240 -3 hvcurveto
          -66 -1 -59 3 -47 17 rrcurveto
          554 274 151 -274 vlineto
          endchar
        </CharString>
        <CharString name="Delta">
          18 callgsubr
        </CharString>
        <CharString name="Deltagreek">
          18 callgsubr
        </CharString>
        <CharString name="E">
          -77 callgsubr
          hstemhm
          233 339 291 146 hintmask 00000000
          hintmask 10011100
          77 hmoveto
          -38 callgsubr
          hintmask 01011110
          -102 callgsubr
          hintmask 00111100
          7 callsubr
          hintmask 10011100
          75 callsubr
        </CharString>
        <CharString name="Eacute">
          -77 callgsubr
          136 callsubr
          339 -43 519 -185 146 hintmask 0000011010000000
          646 -73 callsubr
          -62 callsubr
          -452 -1702 rmoveto
          -38 callgsubr
          hintmask 1001100100000000
          -102 callgsubr
          hintmask 0101100101000000
          7 callsubr
          hintmask 0011100100000000
          75 callsubr
        </CharString>
        <CharString name="Ebreve">
          -77 callgsubr
          105 207 hstemhm
          233 339 -248 160 379 146 -98 164 hintmask 0000010101000000
          701 1627 -91 callsubr
          -62 callsubr
          -624 -1627 rmoveto
          -38 callgsubr
          hintmask 1001101000000000
          -102 callgsubr
          hintmask 0101101010000000
          7 callsubr
          hintmask 0011101000000000
          75 callsubr
        </CharString>
        <CharString name="Ecaron">
          -77 callgsubr
          124 368 hstemhm
          233 339 -254 775 -230 146 hintmask 0000010100000000
          598 1646 -78 callgsubr
          -62 callsubr
          -241 -1926 rmoveto
          -38 callgsubr
          hintmask 1001101000000000
          -102 callgsubr
          hintmask 0101101010000000
          7 callsubr
          hintmask 0011101000000000
          75 callsubr
        </CharString>
        <CharString name="Ecircumflex">
          -77 callgsubr
          123 -45 callgsubr
          233 339 -276 801 -234 146 -62 callsubr
          hintmask 1001100100000000
          77 hmoveto
          -38 callgsubr
          hintmask 0101100101000000
          -102 callgsubr
          hintmask 0011100100000000
          7 callsubr
          hintmask 1001100100000000
          -2 callgsubr
          -62 callsubr
          328 33 callsubr
          hintmask 0000011010000000
          30 callgsubr
        </CharString>
        <CharString name="Edieresis">
          -77 callgsubr
          119 callsubr
          339 -308 26 callsubr
          -269 146 -62 callsubr
          hintmask 0000001011000000
          412 11 callsubr
          hintmask 0000010011000000
          -80 callsubr
          hintmask 0000001011000000
          -84 callsubr
          hintmask 0000010011000000
          -79 callgsubr
          hintmask 0000001011000000
          38 callgsubr
          -62 callsubr
          -862 -1653 rmoveto
          -38 callgsubr
          hintmask 1001100100000000
          -102 callgsubr
          hintmask 0101100100100000
          7 callsubr
          hintmask 0011100100000000
          75 callsubr
        </CharString>
        <CharString name="Edotaccent">
          -77 callgsubr
          161 -21 hstemhm
          233 339 -54 363 -18 146 hintmask 0000010100000000
          683 1662 -94 callsubr
          -62 callsubr
          -606 -1662 rmoveto
          -38 callgsubr
          hintmask 1001101000000000
          -102 callgsubr
          hintmask 0101101010000000
          7 callsubr
          hintmask 0011101000000000
          75 callsubr
        </CharString>
        <CharString name="Egrave">
          -77 callgsubr
          136 callsubr
          339 -243 518 16 146 hintmask 0000011010000000
          729 1614 -78 callsubr
          -62 callsubr
          -652 -1614 rmoveto
          -38 callgsubr
          hintmask 1001100100000000
          -102 callgsubr
          hintmask 0101100101000000
          7 callsubr
          hintmask 0011100100000000
          75 callsubr
        </CharString>
        <CharString name="Emacron">
          -77 callgsubr
          198 195 hstemhm
          233 339 -191 638 -156 146 hintmask 0000010100000000
          381 1720 48 callgsubr
          -62 callsubr
          -304 -1915 rmoveto
          -38 callgsubr
          hintmask 1001101000000000
          -102 callgsubr
          hintmask 0101101010000000
          7 callsubr
          hintmask 0011101000000000
          75 callsubr
        </CharString>
        <CharString name="Eng">
          216 0 67 callsubr
          158 1197 167 -157 157 -138 138 -123 123 hstemhm
          245 192 829 191 hintmask 00000000
          hintmask 10001011
          69 hmoveto
          561 132 hlineto
          hintmask 01100011
          -193 26 rlineto
          1034 vlineto
          112 -232 601 -953 -13 -33 -16 -32 -15 -24 rlinecurve
          -63 -100 -94 -71 -122 -36 66 -108 rcurveline
          134 18 127 55 115 127 rrcurveto
          77 91 111 121 415 vvcurveto
          925 vlineto
          hintmask 10001011
          170 29 rlineto
          138 -541 -138 vlineto
          hintmask 10100011
          180 -29 rlineto
          -986 vlineto
          -134 270 rlineto
          hintmask 10001011
          -559 883 rlineto
          -504 hlineto
          hintmask 10000111
          -123 vlineto
          hintmask 01010011
          176 -34 rlineto
          -1207 vlineto
          hintmask 10001011
          -176 -26 rlineto
          endchar
        </CharString>
        <CharString name="Eogonek">
          -66 -513 183 -162 -21 513 -72 callgsubr
          hstemhm
          233 339 167 442 -318 146 -33 285 -62 callsubr
          hintmask 0110011100100000
          77 hmoveto
          954 hlineto
          hintmask 0110011110000000
          -183 -65 -109 -127 -117 vvcurveto
          -133 114 -71 159 vhcurveto
          hintmask 0110011100100000
          84 108 25 43 57 hvcurveto
          hintmask 1010011100100000
          157 callgsubr
          -30 -8 -47 hhcurveto
          hintmask 1010011110000000
          -82 -51 39 71 72 114 120 136 28 hvcurveto
          10 hlineto
          52 381 -171 49 rlineto
          hintmask 0101011110000000
          -125 -258 -450 -27 rlineto
          554 vlineto
          hintmask 0110011101000000
          256 -6 35 -176 rlineto
          146 509 -146 hlineto
          -37 -165 -254 -6 130 callgsubr
          hintmask 0110011100100000
          404 -20 70 -198 rlineto
          hintmask 0100111110000000
          163 hlineto
          -28 353 rlineto
          -1107 72 callsubr
          -29 51 callgsubr
          hintmask 0110011100100000
          75 callsubr
        </CharString>
        <CharString name="Eth">
          155 -16 148 -132 65 callgsubr
          559 142 493 76 callgsubr
          91 718 rmoveto
          142 hlineto
          hintmask 0011001011000000
          -559 0 callsubr
          -493 -142 vlineto
          hintmask 1001001011000000
          477 518 rmoveto
          4 21 43 12 73 hhcurveto
          307 125 -247 -385 -436 -157 -191 -240 -3 hvcurveto
          -66 -1 -59 3 -47 17 rrcurveto
          567 287 142 -287 vlineto
          endchar
        </CharString>
        <CharString name="Euro">
          166 -28 134 421 142 217 140 370 145 hstem
          233 368 vstem
          55 527 rmoveto
          195 hlineto
          -344 63 228 -211 341 hhcurveto
          262 140 85 4 87 hvcurveto
          22 297 -156 27 -93 -195 rlineto
          -63 -57 -70 -21 -82 hhcurveto
          -180 -105 139 282 -37 hvcurveto
          425 142 -437 hlineto
          -1 36 -1 37 40 vvcurveto
          36 0 35 2 33 vhcurveto
          464 140 -451 hlineto
          254 35 101 116 174 hhcurveto
          83 94 -19 -45 34 hvcurveto
          63 -244 rlineto
          177 hlineto
          23 369 rlineto
          8 -90 -126 76 -237 hhcurveto
          -342 -246 -184 -331 -88 hvcurveto
          -197 -140 170 hlineto
          -6 -50 -3 -52 -54 vvcurveto
          -21 0 -20 1 -20 vhcurveto
          -179 hlineto
          endchar
        </CharString>
        <CharString name="F">
          150 callsubr
          hstem
          233 339 314 148 vstem
          77 hmoveto
          -2 callsubr
        </CharString>
        <CharString name="G">
          118 -23 19 callgsubr
          hstem
          66 390 600 331 vstem
          800 -23 -71 callgsubr
        </CharString>
        <CharString name="Gbreve">
          123 -23 19 callgsubr
          86 207 hstemhm
          71 390 -6 141 callgsubr
          -145 331 hintmask 00010110
          832 1627 -91 callsubr
          hintmask 11101001
          -27 -1650 -71 callgsubr
        </CharString>
        <CharString name="Gcaron">
          118 -23 19 callgsubr
          105 368 hstemhm
          66 390 18 775 -193 331 hintmask 11101010
          800 -23 -100 callgsubr
          hintmask 00010100
          -46 1669 0 callgsubr
        </CharString>
        <CharString name="Gcircumflex">
          123 -23 19 callgsubr
          104 -45 callgsubr
          71 390 -27 801 -174 331 hintmask 11100101
          805 -23 -100 callgsubr
          hintmask 00000000
          -262 1647 -81 callgsubr
          hintmask 00011010
          30 callgsubr
        </CharString>
        <CharString name="Gcommaaccent">
          123 3 callgsubr
          484 19 callgsubr
          hstemhm
          71 390 185 325 90 331 -62 callsubr
          hintmask 1010000100000000
          971 -262 -92 callsubr
          hintmask 1100000100000000
          2 callsubr
          hintmask 1010000100000000
          -24 callsubr
          hintmask 0001111010000000
          -166 239 -71 callgsubr
        </CharString>
        <CharString name="Gdotaccent">
          123 -23 19 callgsubr
          142 -21 hstemhm
          71 390 196 363 41 331 hintmask 00010100
          822 1662 -94 callsubr
          hintmask 11101010
          -17 -1685 -71 callgsubr
        </CharString>
        <CharString name="H">
          153 callgsubr
          hstem
          233 337 575 338 vstem
          -66 callsubr
          endchar
        </CharString>
        <CharString name="Hbar">
          303 0 101 callsubr
          428 168 246 133 246 141 143 callsubr
          575 337 hintmask 00000000
          hintmask 10111110
          54 1002 rmoveto
          179 hlineto
          hintmask 01111110
          -842 vlineto
          hintmask 10111110
          -158 -43 callsubr
          661 -30 callgsubr
          hintmask 01111110
          -165 26 rlineto
          428 575 -428 vlineto
          hintmask 10111110
          -154 -43 callsubr
          647 -30 callgsubr
          hintmask 01111110
          -156 26 rlineto
          842 197 133 -197 218 vlineto
          157 28 -69 callgsubr
          -649 -73 callgsubr
          155 -29 rlineto
          -217 -575 218 vlineto
          165 28 -69 callgsubr
          144 callgsubr
          157 -29 rlineto
          -217 -179 vlineto
          517 -379 rmoveto
          246 575 -246 vlineto
          endchar
        </CharString>
        <CharString name="Hcircumflex">
          153 callgsubr
          123 -21 109 -21 158 callsubr
          -112 801 -114 338 hintmask 11100101
          -66 callsubr
          hintmask 00000000
          486 33 callsubr
          hintmask 00011010
          30 callgsubr
        </CharString>
        <CharString name="I">
          -74 callsubr
        </CharString>
        <CharString name="I.uc">
          -39 callsubr
        </CharString>
        <CharString name="IJ">
          245 -51 callgsubr
          177 callsubr
          292 719 -499 336 -72 callsubr
          hintmask 00000000
          796 -527 rmoveto
          hintmask 00101000
          -46 callgsubr
          hintmask 00100100
          21 callgsubr
          hintmask 00101000
          -5 callsubr
          hintmask 00100100
          171 callsubr
        </CharString>
        <CharString name="IJ_acutecomb">
          244 87 callgsubr
          292 719 -499 336 -330 519 -62 callsubr
          hintmask 0110010000000000
          91 hmoveto
          674 hlineto
          hintmask 1010010000000000
          132 vlineto
          hintmask 0110010000000000
          -96 callgsubr
          hintmask 1010010000000000
          -165 -26 rlineto
          hintmask 0001100010000000
          1139 1480 -95 callgsubr
          -62 callsubr
          -226 -2095 rmoveto
          hintmask 0010001000000000
          -46 callgsubr
          hintmask 0010000100000000
          21 callgsubr
          hintmask 0010001000000000
          -5 callsubr
          hintmask 0010000100000000
          43 callgsubr
          hintmask 0010001000000000
          -426 1889 -95 callgsubr
          endchar
        </CharString>
        <CharString name="Iacute">
          -563 87 callgsubr
          -312 519 hintmask 00000000
          hintmask 01100100
          91 hmoveto
          674 hlineto
          hintmask 10100100
          132 vlineto
          hintmask 01100100
          -96 callgsubr
          hintmask 10100100
          -165 -26 rlineto
          hintmask 00011010
          309 1480 -95 callgsubr
          endchar
        </CharString>
        <CharString name="Ibreve">
          -46 callsubr
          105 207 hstemhm
          51 160 45 339 43 164 hintmask 00000000
          hintmask 01100100
          91 hmoveto
          674 hlineto
          hintmask 10100100
          132 vlineto
          hintmask 01100100
          -96 callgsubr
          hintmask 10100100
          -165 -26 rlineto
          hintmask 00011010
          337 1493 7 callgsubr
        </CharString>
        <CharString name="Icircumflex">
          -46 callsubr
          123 -21 109 -21 hstemhm
          23 801 -568 339 hintmask 00000000
          hintmask 01100010
          91 hmoveto
          674 hlineto
          hintmask 10100010
          132 vlineto
          hintmask 01100010
          -96 callgsubr
          hintmask 10100010
          -165 -26 rlineto
          hintmask 00000000
          41 33 callsubr
          hintmask 00011100
          30 callgsubr
        </CharString>
        <CharString name="Idieresis">
          -62 callgsubr
        </CharString>
        <CharString name="Idotaccent">
          -39 callsubr
        </CharString>
        <CharString name="Igrave">
          -46 callsubr
          113 -45 callgsubr
          51 518 -313 339 hintmask 00000000
          hintmask 01100010
          91 hmoveto
          674 hlineto
          hintmask 10100010
          132 vlineto
          hintmask 01100010
          -96 callgsubr
          hintmask 10100010
          -165 -26 rlineto
          hintmask 00011100
          360 1480 18 callsubr
        </CharString>
        <CharString name="Imacron">
          -46 callsubr
          198 195 hstemhm
          107 638 -489 339 hintmask 00000000
          hintmask 01100100
          91 hmoveto
          674 hlineto
          hintmask 10100100
          132 vlineto
          hintmask 01100100
          -96 callgsubr
          hintmask 10100100
          -165 -26 rlineto
          hintmask 00011000
          16 1586 129 callgsubr
        </CharString>
        <CharString name="Iogonek">
          -563 168 callgsubr
          -134 160 -139 -21 1381 141 hstemhm
          89 569 -534 639 -507 339 -62 callsubr
          hintmask 0100111000000000
          91 hmoveto
          300 hlineto
          hintmask 0100110100000000
          -152 -65 -115 -127 -117 vvcurveto
          -133 123 -71 159 vhcurveto
          hintmask 0100111000000000
          84 110 25 43 58 hvcurveto
          hintmask 1000111000000000
          157 callgsubr
          -28 -8 -47 hhcurveto
          hintmask 1000110100000000
          -93 -54 39 71 67 80 103 117 50 hvcurveto
          177 hlineto
          hintmask 0101010100000000
          132 vlineto
          hintmask 0101010010000000
          -170 28 rlineto
          1193 vlineto
          hintmask 0100110100000000
          168 28 -69 callgsubr
          vlineto
          hintmask 0100111000000000
          -674 -141 hlineto
          hintmask 0101010010000000
          167 -29 -16 callsubr
          hintmask 0110011000000000
          -165 -26 rlineto
          endchar
        </CharString>
        <CharString name="Itilde">
          -46 callsubr
          131 200 -127 -21 105 199 hstemhm
          -40 930 -634 339 hintmask 00000000
          hintmask 01100001
          91 hmoveto
          674 hlineto
          hintmask 10100001
          132 vlineto
          hintmask 01100001
          -96 callgsubr
          hintmask 10100001
          -165 -26 rlineto
          hintmask 00000000
          508 1519 -14 callsubr
          hintmask 00010010
          -42 callgsubr
          hintmask 00001110
          73 callsubr
          endchar
        </CharString>
        <CharString name="J">
          -606 -18 callgsubr
        </CharString>
        <CharString name="Jcircumflex">
          -605 1381 100 callsubr
          21 801 -785 90 callsubr
          hintmask 10001000
          37 -393 rmoveto
          hintmask 10000100
          -46 callgsubr
          hintmask 10001000
          21 callgsubr
          hintmask 10000100
          -5 callsubr
          hintmask 10001000
          167 callgsubr
          167 1899 -81 callgsubr
          hintmask 01110000
          30 callgsubr
        </CharString>
        <CharString name="K">
          128 47 callsubr
          hstem
          233 338 336 572 vstem
          1549 hmoveto
          -26 callgsubr
        </CharString>
        <CharString name="Kcommaaccent">
          128 77 callsubr
          1247 141 143 callsubr
          75 325 -64 572 hintmask 00000000
          hintmask 10100010
          971 -262 -92 callsubr
          hintmask 11000010
          2 callsubr
          hintmask 10100010
          -24 callsubr
          hintmask 00011101
          578 262 rmoveto
          -26 callgsubr
        </CharString>
        <CharString name="L">
          -102 117 callgsubr
          163 callsubr
          77 hmoveto
          -27 callgsubr
          hintmask 11010000
          1191 vlineto
          hintmask 10110000
          6 callgsubr
          hintmask 11010000
          12 callgsubr
          endchar
        </CharString>
        <CharString name="Lacute">
          88 callsubr
          136 callsubr
          340 -274 519 hintmask 00011010
          416 -73 callsubr
          hintmask 00000000
          -222 -1702 rmoveto
          -27 callgsubr
          hintmask 10100100
          1191 vlineto
          hintmask 11000100
          6 callgsubr
          hintmask 10100100
          12 callgsubr
          endchar
        </CharString>
        <CharString name="Lcaron">
          88 callsubr
          101 -21 hstemhm
          233 340 377 239 hintmask 00000000
          hintmask 10101000
          77 hmoveto
          -27 callgsubr
          hintmask 11001000
          1191 vlineto
          hintmask 10101000
          6 callgsubr
          hintmask 11001000
          12 callgsubr
          hintmask 00010100
          986 853 -63 callsubr
        </CharString>
        <CharString name="Lcommaaccent">
          -106 3 callgsubr
          507 71 callsubr
          -26 325 hintmask 00000000
          hintmask 10100001
          872 -262 -92 callsubr
          hintmask 11000001
          2 callsubr
          hintmask 10100001
          -24 callsubr
          hintmask 00000000
          -795 262 rmoveto
          -27 callgsubr
          hintmask 00010110
          1191 vlineto
          hintmask 00011010
          6 callgsubr
          hintmask 00010110
          12 callgsubr
          endchar
        </CharString>
        <CharString name="Ldot">
          -53 0 172 574 -21 627 110 callgsubr
          233 340 286 384 hintmask 00000000
          hintmask 10011000
          77 hmoveto
          -27 callgsubr
          hintmask 10101000
          1191 vlineto
          hintmask 10011000
          6 callgsubr
          hintmask 10101000
          12 callgsubr
          hintmask 01000100
          955 591 -60 callgsubr
          endchar
        </CharString>
        <CharString name="Lslash">
          -106 117 callgsubr
          163 callsubr
          44 517 rmoveto
          189 75 rlineto
          -432 vlineto
          -156 -43 callsubr
          1150 vlineto
          59 542 -187 28 -132 -387 -394 -22 rlineto
          564 vlineto
          342 138 rlineto
          156 vlineto
          -342 -144 rlineto
          hintmask 11010000
          477 vlineto
          hintmask 10110000
          6 callgsubr
          hintmask 11010000
          154 -29 rlineto
          -611 vlineto
          -189 -77 rlineto
          endchar
        </CharString>
        <CharString name="M">
          695 -52 callgsubr
        </CharString>
        <CharString name="N">
          235 42 callgsubr
          123 callgsubr
          835 192 139 callgsubr
          73 hmoveto
          565 -50 callsubr
          hintmask 01111000
          -3 callgsubr
          hintmask 10111000
          -89 callgsubr
          hintmask 01111000
          -1194 vlineto
          hintmask 10111000
          129 callsubr
        </CharString>
        <CharString name="NULL">
          -1413 endchar
        </CharString>
        <CharString name="Nacute">
          242 42 callgsubr
          113 -21 109 -21 123 callgsubr
          267 519 49 192 hintmask 00011010
          812 -73 callsubr
          hintmask 00000000
          -622 -1702 rmoveto
          565 -50 callsubr
          hintmask 10100101
          -3 callgsubr
          hintmask 01100101
          -89 callgsubr
          hintmask 10100101
          -1194 vlineto
          hintmask 01100101
          129 callsubr
        </CharString>
        <CharString name="Ncaron">
          242 42 callgsubr
          124 368 123 callgsubr
          34 775 26 192 hintmask 00010100
          742 1646 -78 callgsubr
          hintmask 00000000
          -389 -1926 rmoveto
          565 -50 callsubr
          hintmask 10101010
          -3 callgsubr
          hintmask 01101010
          -89 callgsubr
          hintmask 10101010
          -1194 vlineto
          hintmask 01101010
          129 callsubr
        </CharString>
        <CharString name="Ncommaaccent">
          242 -539 -21 56 -21 39 -21 507 57 callsubr
          123 callgsubr
          276 325 234 192 -62 callsubr
          hintmask 1010000100000000
          1029 -262 -92 callsubr
          hintmask 1100000100000000
          2 callsubr
          hintmask 1010000100000000
          159 callsubr
          -956 262 rmoveto
          565 -50 callsubr
          hintmask 0001011010000000
          -3 callgsubr
          hintmask 0000111010000000
          -89 callgsubr
          hintmask 0001011010000000
          -1194 vlineto
          hintmask 0000111010000000
          129 callsubr
        </CharString>
        <CharString name="Ntilde">
          242 0 134 -134 159 1222 150 callgsubr
          235 193 -47 930 -48 192 -62 callsubr
          hintmask 0001000100000000
          1020 1653 -14 callsubr
          hintmask 0000110100000000
          -42 callgsubr
          hintmask 0001000100000000
          73 callsubr
          -62 callsubr
          -947 -1653 rmoveto
          565 -50 callsubr
          hintmask 1010001010000000
          -3 callgsubr
          hintmask 0110001010000000
          -89 callgsubr
          hintmask 1010001010000000
          -1194 vlineto
          hintmask 0110001010000000
          129 callsubr
        </CharString>
        <CharString name="O">
          81 16 callsubr
          hstem
          55 372 640 372 vstem
          737 -11 callgsubr
          endchar
        </CharString>
        <CharString name="OE">
          715 -16 134 -118 118 -118 145 549 163 520 145 -114 134 hstemhm
          62 369 561 343 291 155 -62 callsubr
          hintmask 0101101100000000
          2036 hmoveto
          70 377 -164 49 rlineto
          hintmask 0011101110000000
          -143 -254 -464 -27 rlineto
          552 vlineto
          258 -6 33 -172 rlineto
          155 505 -155 hlineto
          -34 -163 -257 -7 rlineto
          533 vlineto
          407 -20 69 -198 rlineto
          163 hlineto
          -28 353 rlineto
          -954 hlineto
          hintmask 1001011100000000
          -18 vlineto
          27 -68 -75 11 -81 hhcurveto
          -432 -1 -274 -306 -479 vvcurveto
          -458 219 -318 464 4 vhcurveto
          89 1 84 20 74 42 rrcurveto
          hintmask 0101101100000000
          -47 vlineto
          hintmask 1001011100000000
          -236 118 rmoveto
          -202 1 -123 225 413 vvcurveto
          434 114 217 205 113 78 -42 -109 51 vhcurveto
          -948 vlineto
          -120 -51 -78 -71 -107 hhcurveto
          endchar
        </CharString>
        <CharString name="Oacute">
          42 callsubr
          94 -45 callgsubr
          60 372 167 519 -46 372 hintmask 00110100
          716 -73 callsubr
          hintmask 11001010
          143 -1725 -105 callsubr
          endchar
        </CharString>
        <CharString name="Obreve">
          42 callsubr
          86 207 hstemhm
          60 372 -51 141 callgsubr
          -60 372 hintmask 00101100
          758 1627 -91 callsubr
          hintmask 11010010
          -16 -1650 -105 callsubr
          endchar
        </CharString>
        <CharString name="Ocircumflex">
          42 callsubr
          104 -45 callgsubr
          60 372 -79 801 -82 -17 callsubr
          hintmask 00000000
          -290 221 -81 callgsubr
          hintmask 00110100
          30 callgsubr
        </CharString>
        <CharString name="Odieresis">
          90 128 callgsubr
          60 110 callsubr
          469 11 callsubr
          hintmask 00100110
          -80 callsubr
          hintmask 00010110
          -84 callsubr
          hintmask 00100110
          -79 callgsubr
          hintmask 00010110
          38 callgsubr
          hintmask 11001001
          -254 -1676 -105 callsubr
          endchar
        </CharString>
        <CharString name="Ograve">
          42 callsubr
          94 -45 callgsubr
          60 372 -22 518 144 372 hintmask 00110100
          810 1614 -78 callsubr
          hintmask 11001010
          -68 -1637 -105 callsubr
          endchar
        </CharString>
        <CharString name="Ohungarumlaut">
          42 callsubr
          90 -21 128 -21 hstemhm
          60 372 -90 1018 -288 -17 callsubr
          hintmask 00110100
          -282 207 -49 callgsubr
        </CharString>
        <CharString name="Omacron">
          42 callsubr
          179 195 hstemhm
          60 372 6 638 -4 372 hintmask 00101000
          438 1720 48 callgsubr
          hintmask 11010100
          304 -1938 -105 callsubr
          endchar
        </CharString>
        <CharString name="Omega">
          -61 callsubr
        </CharString>
        <CharString name="Omegagreek">
          -61 callsubr
        </CharString>
        <CharString name="Oslash">
          148 callsubr
          217 -21 hstemhm
          55 372 640 372 hintmask 00000000
          hintmask 10101110
          454 -240 rmoveto
          hintmask 01101110
          93 235 rlineto
          hintmask 10011110
          51 callsubr
          hintmask 10101110
          -25 callsubr
          endchar
        </CharString>
        <CharString name="Oslashacute">
          148 callsubr
          133 -21 105 -21 25 -21 hstemhm
          55 372 195 519 -74 372 -62 callsubr
          hintmask 1010010101000000
          454 -240 rmoveto
          hintmask 0110010101000000
          93 235 rlineto
          hintmask 1001010101000000
          51 callsubr
          hintmask 1010010101000000
          -25 callsubr
          hintmask 0000101010000000
          -328 831 -95 callgsubr
          endchar
        </CharString>
        <CharString name="Otilde">
          42 callsubr
          112 63 callgsubr
          60 372 -142 930 -148 372 hintmask 00000000
          hintmask 00100010
          929 1653 -14 callsubr
          hintmask 00011010
          -42 callgsubr
          hintmask 00100010
          73 callsubr
          hintmask 11000101
          -187 -1676 -105 callsubr
          endchar
        </CharString>
        <CharString name="P">
          -53 callsubr
        </CharString>
        <CharString name="Q">
          92 -391 206 162 139 -102 -21 1410 138 hstemhm
          60 372 640 372 hintmask 00000000
          hintmask 01011100
          742 -23 rmoveto
          hintmask 10111100
          52 1 49 5 48 10 rrcurveto
          -90 226 197 -294 310 hhcurveto
          11 hlineto
          184 62 87 22 20 hvcurveto
          -34 106 rlineto
          -4 -18 -31 -5 -52 hhcurveto
          -2 hlineto
          -182 -275 204 47 -223 hvcurveto
          224 127 136 257 334 vvcurveto
          461 -204 295 -475 1 vhcurveto
          -423 1 -282 -308 -479 vvcurveto
          hintmask 01011100
          -466 207 -317 475 5 vhcurveto
          10 1426 rmoveto
          200 120 -185 -435 -10 callgsubr
          -200 -119 205 436 -11 callsubr
          hvcurveto
          endchar
        </CharString>
        <CharString name="R">
          39 callsubr
          143 callsubr
          393 359 hintmask 00000000
          hintmask 11001011
          77 hmoveto
          -68 callsubr
          hintmask 11000111
          86 callgsubr
          hintmask 11010011
          -73 callgsubr
          hintmask 11100011
          63 callsubr
          -2 callgsubr
          494 655 rmoveto
          hintmask 11001011
          9 callsubr
          hintmask 11100011
          165 callgsubr
          endchar
        </CharString>
        <CharString name="Racute">
          39 callsubr
          133 -21 109 -21 143 callsubr
          3 519 -129 359 -62 callsubr
          hintmask 1100100010100000
          77 hmoveto
          -68 callsubr
          hintmask 1100010010100000
          86 callgsubr
          hintmask 1101000010100000
          -73 callgsubr
          hintmask 1110000010100000
          63 callsubr
          -2 callgsubr
          494 655 rmoveto
          hintmask 1100100010100000
          9 callsubr
          hintmask 1110000010100000
          165 callgsubr
          hintmask 0000001101000000
          120 825 -95 callgsubr
          endchar
        </CharString>
        <CharString name="Rcaron">
          39 callsubr
          144 368 143 callsubr
          -222 775 -160 359 hintmask 0000001010000000
          629 1646 -78 callgsubr
          -62 callsubr
          -272 -1926 rmoveto
          -68 callsubr
          hintmask 1100100101000000
          86 callgsubr
          hintmask 1100010101000000
          -73 callgsubr
          hintmask 1101000101000000
          63 callsubr
          -2 callgsubr
          494 655 rmoveto
          hintmask 1110000101000000
          9 callsubr
          hintmask 1100100101000000
          165 callgsubr
          endchar
        </CharString>
        <CharString name="Rcommaaccent">
          73 -539 -21 56 -21 39 -21 507 49 callsubr
          143 callsubr
          66 325 2 359 -62 callsubr
          hintmask 1010000000100000
          962 -262 -92 callsubr
          hintmask 1100000000100000
          2 callsubr
          hintmask 1010000000100000
          159 callsubr
          -885 262 rmoveto
          -68 callsubr
          hintmask 0001100101010000
          86 callgsubr
          hintmask 0001100011010000
          -73 callgsubr
          hintmask 0001101001010000
          63 callsubr
          -2 callgsubr
          494 655 rmoveto
          hintmask 0001110001010000
          9 callsubr
          hintmask 0001100101010000
          165 callgsubr
          endchar
        </CharString>
        <CharString name="S">
          47 callgsubr
          hstem
          118 321 407 340 vstem
          610 -23 -45 callsubr
        </CharString>
        <CharString name="Sacute">
          47 callgsubr
          94 -45 callgsubr
          118 321 59 519 -171 340 hintmask 11001010
          610 -23 -105 callgsubr
          hintmask 00110100
          5 1637 -95 callgsubr
          endchar
        </CharString>
        <CharString name="Scaron">
          47 callgsubr
          105 368 hstemhm
          118 321 -168 775 -200 340 hintmask 11010100
          610 -23 -105 callgsubr
          hintmask 00101000
          -59 1669 0 callgsubr
        </CharString>
        <CharString name="Scircumflex">
          47 callgsubr
          104 -45 callgsubr
          118 321 -189 801 -205 340 hintmask 11001010
          610 -23 -105 callgsubr
          hintmask 00000000
          -251 1647 -81 callgsubr
          hintmask 00110100
          30 callgsubr
        </CharString>
        <CharString name="T">
          54 113 callsubr
          hstem
          565 342 vstem
          13 callgsubr
          endchar
        </CharString>
        <CharString name="Tbar">
          79 0 134 464 151 617 156 hstem
          577 342 vstem
          358 598 rmoveto
          219 -438 hlineto
          -257 -43 callsubr
          879 -30 callgsubr
          -280 27 rlineto
          437 214 151 -214 622 vlineto
          242 -10 88 -444 rlineto
          183 hlineto
          -29 605 rlineto
          -1327 hlineto
          -30 -605 rlineto
          190 hlineto
          83 444 258 10 rlineto
          -622 -219 vlineto
          endchar
        </CharString>
        <CharString name="Tcaron">
          54 113 callsubr
          124 368 hstemhm
          366 775 -576 342 hintmask 00110000
          646 1646 -78 callgsubr
          hintmask 11001000
          -58 -1926 rmoveto
          -65 callgsubr
        </CharString>
        <CharString name="Thorn">
          -46 0 67 callsubr
          158 167 137 585 146 161 173 callgsubr
          232 339 393 357 hintmask 00000000
          hintmask 10110111
          73 hmoveto
          707 132 hlineto
          hintmask 01111011
          -209 26 rlineto
          179 vlineto
          -5 48 85 -7 101 hhcurveto
          322 194 145 318 273 -157 132 -298 -121 -76 -12 -8 -98 hvcurveto
          181 vlineto
          hintmask 10110111
          168 30 -2 138 rlineto
          -664 -138 hlineto
          hintmask 01111011
          159 -30 rlineto
          -1196 vlineto
          hintmask 10110111
          -159 -26 rlineto
          673 330 rmoveto
          -51 -59 -1 10 -65 hvcurveto
          561 vlineto
          7 34 55 8 56 hhcurveto
          186 4 62 -127 -150 vvcurveto
          -210 -93 -102 -125 vhcurveto
          endchar
        </CharString>
        <CharString name="U">
          32 callsubr
          hstem
          159 callgsubr
          636 217 vstem
          -63 callgsubr
          endchar
        </CharString>
        <CharString name="Uacute">
          32 callsubr
          113 -45 callgsubr
          159 callgsubr
          133 519 -16 217 hintmask 00110100
          761 -73 callsubr
          hintmask 11001010
          143 -1718 -101 callgsubr
          endchar
        </CharString>
        <CharString name="Ubreve">
          32 callsubr
          105 207 hstemhm
          159 callgsubr
          -85 141 callgsubr
          -30 217 hintmask 00101100
          803 1627 -91 callsubr
          hintmask 11010010
          -16 -1643 -101 callgsubr
          endchar
        </CharString>
        <CharString name="Ucircumflex">
          106 -16 142 1255 100 callsubr
          159 callgsubr
          -108 801 -57 217 hintmask 11001010
          -63 callgsubr
          hintmask 00000000
          -275 1640 -81 callgsubr
          hintmask 00110100
          30 callgsubr
        </CharString>
        <CharString name="Udieresis">
          106 -16 142 1255 46 callsubr
          159 callgsubr
          -144 26 callsubr
          -88 217 hintmask 00000000
          hintmask 00010110
          515 11 callsubr
          hintmask 00100110
          -80 callsubr
          hintmask 00010110
          -84 callsubr
          hintmask 00100110
          -79 callgsubr
          hintmask 00010110
          38 callgsubr
          hintmask 11001001
          -255 -1669 -101 callgsubr
          endchar
        </CharString>
        <CharString name="Ugrave">
          32 callsubr
          113 -45 callgsubr
          159 callgsubr
          -55 518 173 217 hintmask 00110100
          856 1614 -78 callsubr
          hintmask 11001010
          -69 -1630 -101 callgsubr
          endchar
        </CharString>
        <CharString name="Uhungarumlaut">
          32 callsubr
          109 -21 128 -21 hstemhm
          159 callgsubr
          -124 1018 -258 217 hintmask 11001010
          -63 callgsubr
          hintmask 00110100
          -272 1626 -49 callgsubr
        </CharString>
        <CharString name="Umacron">
          32 callsubr
          198 195 hstemhm
          159 callgsubr
          -28 638 26 217 hintmask 00101000
          483 1720 48 callgsubr
          hintmask 11010100
          304 -1931 -101 callgsubr
          endchar
        </CharString>
        <CharString name="Uogonek">
          106 70 callgsubr
          497 58 callgsubr
          hstemhm
          159 callgsubr
          78 91 295 135 37 217 hintmask 00000000
          hintmask 01111111
          787 -16 rmoveto
          16 16 1 1 16 hvcurveto
          -120 -59 -126 -120 -116 vvcurveto
          -147 130 -57 140 85 108 26 43 58 vhcurveto
          hintmask 10111111
          140 vlineto
          -18 -47 -29 -8 -48 hhcurveto
          -80 -50 50 69 76 74 83 105 77 hvcurveto
          198 75 131 181 326 vvcurveto
          745 vlineto
          135 29 -69 callgsubr
          -524 -73 callgsubr
          172 -29 rlineto
          -762 vlineto
          -282 -94 -182 -220 -215 -107 149 320 vhcurveto
          756 vlineto
          169 30 17 callgsubr
          130 -29 rlineto
          -728 vlineto
          hintmask 01111111
          -454 203 -186 424 vhcurveto
          endchar
        </CharString>
        <CharString name="Uring">
          32 callsubr
          -37 118 291 120 hstemhm
          159 callgsubr
          -49 203 306 203 -27 217 hintmask 11001001
          -63 callgsubr
          hintmask 00110110
          32 1619 -55 callgsubr
        </CharString>
        <CharString name="Utilde">
          106 -16 142 1255 150 callgsubr
          159 callgsubr
          -176 930 -118 217 hintmask 00000000
          hintmask 00100010
          974 1653 -14 callsubr
          hintmask 00011010
          -42 callgsubr
          hintmask 00100010
          73 callsubr
          hintmask 11000101
          -187 -1669 -101 callgsubr
          endchar
        </CharString>
        <CharString name="V">
          11 6 -21 1396 141 hstemhm
          -36 1499 -514 514 hintmask 00000000
          hintmask 11100000
          588 -15 rmoveto
          273 hlineto
          470 1368 rlineto
          hintmask 11010000
          132 28 -69 callgsubr
          -514 -73 callgsubr
          155 -29 -280 -898 -40 -182 -48 181 -284 900 172 28 -69 callgsubr
          144 callgsubr
          122 -28 rlineto
          endchar
        </CharString>
        <CharString name="W">
          682 11 -21 1391 141 hstemhm
          -39 2172 -503 503 hintmask 00000000
          hintmask 11100000
          499 -10 -14 callgsubr
          hintmask 11010000
          -87 callgsubr
          endchar
        </CharString>
        <CharString name="Wacute">
          103 callgsubr
          -1219 519 hintmask 00110100
          1027 -73 callsubr
          hintmask 00000000
          -415 -1712 -14 callgsubr
          hintmask 11001000
          -87 callgsubr
          endchar
        </CharString>
        <CharString name="Wcircumflex">
          677 11 -21 1391 100 callsubr
          -43 2172 -1465 801 161 503 hintmask 00000000
          hintmask 11001000
          495 -10 -14 callgsubr
          hintmask 11000010
          -87 callgsubr
          hintmask 00000000
          696 273 -81 callgsubr
          hintmask 00110100
          30 callgsubr
        </CharString>
        <CharString name="Wdieresis">
          677 11 -21 1391 46 callsubr
          -43 2172 -1497 154 callgsubr
          hintmask 00010110
          780 11 callsubr
          hintmask 00100110
          -80 callsubr
          hintmask 00010110
          -84 callsubr
          hintmask 00100110
          -79 callgsubr
          hintmask 00010110
          38 callgsubr
          hintmask 00000000
          -812 -1663 -14 callgsubr
          hintmask 11001000
          -87 callgsubr
          endchar
        </CharString>
        <CharString name="Wgrave">
          103 callgsubr
          -1413 518 hintmask 00110100
          1116 1614 -78 callsubr
          hintmask 00000000
          -621 -1624 -14 callgsubr
          hintmask 11001000
          -87 callgsubr
          endchar
        </CharString>
        <CharString name="X">
          -43 callgsubr
        </CharString>
        <CharString name="Y">
          -62 47 callsubr
          hstemhm
          509 357 4 517 hintmask 00000000
          hintmask 11100000
          300 -28 callsubr
          hintmask 11010000
          -86 callsubr
          rlineto
          hintmask 11100000
          12 callsubr
          endchar
        </CharString>
        <CharString name="Yacute">
          126 callsubr
          498 357 -320 519 -195 517 hintmask 00000000
          hintmask 11001000
          14 callsubr
          hintmask 11000010
          -86 callsubr
          rlineto
          hintmask 11001000
          12 callsubr
          hintmask 00110100
          363 1480 -95 callgsubr
          endchar
        </CharString>
        <CharString name="Ycircumflex">
          -91 0 134 1247 100 callsubr
          289 801 -592 357 4 517 hintmask 00000000
          hintmask 11000100
          14 callsubr
          hintmask 11000010
          -86 callsubr
          rlineto
          hintmask 11000100
          12 callsubr
          hintmask 00000000
          109 33 callsubr
          hintmask 00111000
          30 callgsubr
        </CharString>
        <CharString name="Ydieresis">
          -91 0 134 1247 46 callsubr
          256 340 -98 357 -71 340 -265 517 hintmask 00000000
          hintmask 11000100
          14 callsubr
          hintmask 11000001
          -86 callsubr
          rlineto
          hintmask 11000100
          12 callsubr
          hintmask 00000000
          115 1519 -56 callgsubr
          hintmask 00011010
          -80 callsubr
          hintmask 00101010
          -84 callsubr
          hintmask 00011010
          -79 callgsubr
          hintmask 00101010
          75 callgsubr
        </CharString>
        <CharString name="Ygrave">
          126 callsubr
          340 518 -360 357 4 517 hintmask 00000000
          hintmask 11000100
          14 callsubr
          hintmask 11000010
          -86 callsubr
          rlineto
          hintmask 11000100
          12 callsubr
          hintmask 00111000
          451 1480 18 callsubr
        </CharString>
        <CharString name="Z">
          61 callsubr
          hstemhm
          31 1253 hintmask 00000000
          hintmask 11010000
          102 hmoveto
          -32 callsubr
          hintmask 10110000
          114 callsubr
          hintmask 11010000
          -57 callgsubr
          endchar
        </CharString>
        <CharString name="Zacute">
          61 callsubr
          108 -45 callgsubr
          31 1253 -724 519 hintmask 00000000
          hintmask 11000100
          102 hmoveto
          -32 callsubr
          hintmask 10100100
          114 callsubr
          hintmask 11000100
          -57 callgsubr
          hintmask 00011010
          646 1494 -95 callgsubr
          endchar
        </CharString>
        <CharString name="Zcaron">
          61 callsubr
          119 368 hstemhm
          31 1253 -949 775 hintmask 00010100
          615 1646 -78 callgsubr
          hintmask 00000000
          -233 -1926 rmoveto
          -32 callsubr
          hintmask 11001000
          114 callsubr
          hintmask 10101000
          -57 callgsubr
          endchar
        </CharString>
        <CharString name="Zdotaccent">
          61 callsubr
          156 -21 hstemhm
          31 1253 -749 363 hintmask 00010100
          700 1662 -94 callsubr
          hintmask 00000000
          -598 -1662 rmoveto
          -32 callsubr
          hintmask 11001000
          114 callsubr
          hintmask 10101000
          -57 callgsubr
          endchar
        </CharString>
        <CharString name="a">
          -252 -64 callsubr
          130 callsubr
          316 52 callsubr
          hintmask 00000000
          hintmask 01111100
          -88 callsubr
          hintmask 01111010
          87 126 22 11 50 hvcurveto
          hintmask 10111010
          127 vlineto
          hintmask 10111100
          -98 callsubr
          hintmask 01111100
          -96 callsubr
          endchar
        </CharString>
        <CharString name="aacute">
          -54 callgsubr
          519 -21 130 callsubr
          -19 553 -218 300 -288 397 -101 callsubr
          hintmask 0000101000000000
          -55 1142 -29 callsubr
        </CharString>
        <CharString name="abreve">
          -54 callgsubr
          166 225 130 callsubr
          -205 155 366 52 callsubr
          -347 151 -101 callsubr
          hintmask 0000101001000000
          8 1165 rmoveto
          -91 callgsubr
        </CharString>
        <CharString name="acircumflex">
          -54 callgsubr
          140 488 130 callsubr
          -239 807 -252 300 -288 397 -101 callsubr
          hintmask 0000101000000000
          -290 1139 23 callgsubr
        </CharString>
        <CharString name="acute">
          -732 1683 -21 hstem
          157 553 vstem
          278 1307 -29 callsubr
        </CharString>
        <CharString name="acute.cap">
          -376 1635 -21 109 -21 hstem
          418 519 vstem
          535 -73 callsubr
          endchar
        </CharString>
        <CharString name="adieresis">
          -54 callgsubr
          172 352 130 callsubr
          -256 5 callgsubr
          -272 98 callgsubr
          hintmask 0111010010000000
          -88 callsubr
          hintmask 0111010001000000
          87 126 22 11 50 hvcurveto
          hintmask 1011010001000000
          127 vlineto
          hintmask 1011010010000000
          -98 callsubr
          hintmask 0111010010000000
          -96 callsubr
          hintmask 0000101100000000
          -264 1171 -90 callsubr
        </CharString>
        <CharString name="ae">
          365 84 callsubr
          59 126 callgsubr
          1262 -75 callsubr
        </CharString>
        <CharString name="aeacute">
          357 -23 188 -188 203 362 137 -108 130 245 218 -138 141 516 -21 hstemhm
          59 350 305 553 -546 327 346 321 hintmask 0000001010000000
          835 1307 -94 callgsubr
          -62 callsubr
          548 -1430 rmoveto
          189 184 95 69 65 hvcurveto
          -54 123 rlineto
          -38 -60 -126 -46 -111 hhcurveto
          -167 -114 108 254 -17 hvcurveto
          649 hlineto
          11 53 5 173 callsubr
          -149 150 -284 hhcurveto
          -140 -120 -40 -74 -92 hvcurveto
          hintmask 0110010101100000
          77 -55 -98 34 -170 hhcurveto
          -232 -218 -110 -50 -57 hvcurveto
          66 -139 rlineto
          37 89 116 44 151 hhcurveto
          168 38 -64 -138 hvcurveto
          -43 vlineto
          -393 -4 -269 -125 -263 vvcurveto
          -224 161 -108 185 183 158 97 109 72 vhcurveto
          hintmask 0101100101100000
          -129 86 144 -77 214 hhcurveto
          hintmask 0110010101100000
          -705 188 rmoveto
          -87 -61 54 135 106 75 110 237 1 hvcurveto
          -3 vlineto
          -106 15 -96 31 -82 vhcurveto
          -58 -38 -86 -61 -86 hhcurveto
          679 861 rmoveto
          120 38 -113 -150 hvcurveto
          hintmask 1001010101100000
          -21 -1 -42 -1 -21 vhcurveto
          -344 hlineto
          hintmask 0110010101100000
          146 callgsubr
        </CharString>
        <CharString name="afii10017">
          -30 callsubr
          hstemhm
          -41 540 hintmask 00000000
          hintmask 11110000
          -85 callgsubr
          endchar
        </CharString>
        <CharString name="afii10018">
          -8 135 callsubr
          159 597 146 463 156 -140 141 hstemhm
          233 336 439 349 hintmask 00000000
          hintmask 01011011
          51 hmoveto
          362 hlineto
          85 269 -16 49 hhcurveto
          hintmask 10011011
          317 224 170 312 289 -174 147 -364 hvcurveto
          -250 472 hlineto
          418 -17 66 -248 rlineto
          196 hlineto
          -21 413 rlineto
          -1176 hlineto
          hintmask 00110111
          -73 callgsubr
          181 -31 callsubr
          hintmask 01011011
          -182 -25 rlineto
          672 622 rmoveto
          185 100 -91 -217 hvcurveto
          hintmask 10011011
          -186 -76 -137 -217 -83 -34 9 11 -29 vhcurveto
          611 vlineto
          endchar
        </CharString>
        <CharString name="afii10019">
          -77 callsubr
        </CharString>
        <CharString name="afii10020">
          -190 -19 callgsubr
          106 callsubr
          hstemhm
          271 339 hintmask 00000000
          hintmask 10101000
          610 1374 rmoveto
          24 callgsubr
          hintmask 01011000
          107 callgsubr
          hintmask 10101000
          -222 145 callgsubr
          878 -30 callgsubr
          hintmask 01101000
          -317 27 rlineto
          endchar
        </CharString>
        <CharString name="afii10021">
          157 0 160 1207 155 -13 callsubr
          hstemhm
          447 167 351 333 -11 207 hintmask 00000000
          hintmask 11010100
          38 -410 rmoveto
          190 hlineto
          13 83 63 295 30 32 rrcurveto
          862 hlineto
          21 -34 68 -309 2 -63 rrcurveto
          185 hlineto
          6 25 15 444 97 vvcurveto
          hintmask 10111000
          -194 1193 hlineto
          hintmask 10110100
          195 28 rlineto
          hintmask 11010100
          141 -1259 vlineto
          hintmask 10110100
          -73 callgsubr
          212 -28 rlineto
          -84 vlineto
          -662 -164 -334 -78 -113 vhcurveto
          -143 -6 hlineto
          -5 4 rlineto
          hintmask 11010100
          -7 -130 -8 -380 -4 -58 rrcurveto
          576 1667 rmoveto
          110 vlineto
          hintmask 11011000
          352 hlineto
          -1 -1207 rlineto
          -534 hlineto
          hintmask 11010100
          71 138 114 363 -2 596 rrcurveto
          endchar
        </CharString>
        <CharString name="afii10022">
          -77 callgsubr
          hstemhm
          233 339 291 146 hintmask 00000000
          hintmask 10011100
          77 hmoveto
          -38 callgsubr
          hintmask 01011110
          -102 callgsubr
          hintmask 00111100
          7 callsubr
          hintmask 10011100
          75 callsubr
        </CharString>
        <CharString name="afii10023">
          -77 callgsubr
          119 callsubr
          339 -306 26 callsubr
          -271 146 -62 callsubr
          hintmask 0000001011000000
          414 11 callsubr
          hintmask 0000010011000000
          -80 callsubr
          hintmask 0000001011000000
          -84 callsubr
          hintmask 0000010011000000
          -79 callgsubr
          hintmask 0000001011000000
          38 callgsubr
          -62 callsubr
          -864 -1653 rmoveto
          -38 callgsubr
          hintmask 1001100100000000
          -102 callgsubr
          hintmask 0101100100100000
          7 callsubr
          hintmask 0011100100000000
          75 callsubr
        </CharString>
        <CharString name="afii10024">
          152 callsubr
          hstem
          40 551 334 325 335 555 vstem
          2173 hmoveto
          -87 callsubr
        </CharString>
        <CharString name="afii10025">
          -134 -12 121 callsubr
          hstemhm
          809 357 -351 389 hintmask 00000000
          hintmask 11110000
          137 77 callgsubr
          hintmask 11101000
          60 callsubr
          hintmask 11110000
          -53 callgsubr
          hintmask 11101000
          27 callsubr
          endchar
        </CharString>
        <CharString name="afii10026">
          4 callgsubr
          hstemhm
          233 334 611 334 hintmask 00000000
          hintmask 10011100
          134 callgsubr
          hintmask 10101100
          906 vlineto
          hintmask 10011100
          35 callsubr
          hintmask 01101100
          152 26 callgsubr
          hintmask 10011100
          57 callgsubr
          hintmask 01011100
          -8 callgsubr
          hintmask 10011100
          56 callsubr
          hintmask 01101100
          91 callsubr
          hintmask 10011100
          152 28 -69 callgsubr
          -648 -73 callgsubr
          hintmask 10101100
          162 -28 rlineto
          -43 vlineto
          endchar
        </CharString>
        <CharString name="afii10027">
          4 callgsubr
          178 callgsubr
          233 334 -119 140 callgsubr
          -122 334 hintmask 0000101100000000
          873 1641 -82 callgsubr
          -62 callsubr
          -204 -1010 rmoveto
          -102 -184 rlineto
          hintmask 1001010010000000
          906 vlineto
          hintmask 1010010010000000
          35 callsubr
          hintmask 1001010010000000
          152 26 callgsubr
          hintmask 0110010010000000
          57 callgsubr
          hintmask 1001010010000000
          -8 callgsubr
          hintmask 0101010010000000
          56 callsubr
          hintmask 1001010010000000
          91 callsubr
          hintmask 0110010010000000
          152 28 -69 callgsubr
          -648 -73 callgsubr
          hintmask 1001010010000000
          162 -28 rlineto
          -43 vlineto
          endchar
        </CharString>
        <CharString name="afii10028">
          78 79 callsubr
          hstem
          233 334 335 555 vstem
          1489 hmoveto
          -23 callsubr
        </CharString>
        <CharString name="afii10029">
          152 -14 207 -193 134 1218 76 callsubr
          hintmask 00000000
          hintmask 01011100
          1518 1381 rmoveto
          hintmask 01101100
          -4 callsubr
          hintmask 01101100
          1 -1192 -217 -43 callsubr
          751 -30 callgsubr
          -203 25 rlineto
          1193 vlineto
          endchar
        </CharString>
        <CharString name="afii10030">
          705 -52 callgsubr
        </CharString>
        <CharString name="afii10031">
          153 callgsubr
          hstem
          233 337 575 338 vstem
          -66 callsubr
          endchar
        </CharString>
        <CharString name="afii10032">
          82 16 callsubr
          hstem
          56 372 640 372 vstem
          738 -11 callgsubr
          endchar
        </CharString>
        <CharString name="afii10033">
          243 0 101 callsubr
          1208 154 -140 140 hstemhm
          233 336 518 142 callsubr
          hintmask 10101100
          77 hmoveto
          658 -50 callsubr
          hintmask 01101100
          153 callsubr
          hintmask 10101100
          -148 -43 callsubr
          657 -30 callgsubr
          hintmask 01011100
          -173 26 rlineto
          1193 vlineto
          161 29 rlineto
          hintmask 10101100
          140 -1511 vlineto
          hintmask 01011100
          -73 callgsubr
          160 26 callgsubr
          hintmask 10101100
          185 callsubr
          endchar
        </CharString>
        <CharString name="afii10034">
          -53 callsubr
        </CharString>
        <CharString name="afii10035">
          -62 -23 69 callgsubr
          hstem
          55 384 vstem
          800 -23 -99 callsubr
          endchar
        </CharString>
        <CharString name="afii10036">
          95 113 callsubr
          hstem
          585 342 vstem
          328 hmoveto
          -65 callgsubr
        </CharString>
        <CharString name="afii10037">
          81 callgsubr
          hstem
          897 464 vstem
          464 -23 -89 callsubr
          endchar
        </CharString>
        <CharString name="afii10038">
          295 -44 138 164 113 790 112 158 135 hstem
          15 352 326 322 327 352 vstem
          518 -44 rmoveto
          672 138 hlineto
          -175 24 rlineto
          140 vlineto
          453 11 226 212 284 vvcurveto
          267 -95 237 -584 6 vhcurveto
          125 vlineto
          173 31 rlineto
          135 -672 -135 vlineto
          177 -31 rlineto
          -127 vlineto
          -475 -15 -203 -200 -284 vvcurveto
          -264 102 -246 576 -5 vhcurveto
          -140 vlineto
          -175 -24 rlineto
          824 666 rmoveto
          -209 -41 -161 -286 -20 vhcurveto
          786 vlineto
          284 -32 43 -185 -179 vvcurveto
          -975 24 rmoveto
          203 39 153 287 20 vhcurveto
          -787 vlineto
          -283 34 -43 200 177 vvcurveto
          endchar
        </CharString>
        <CharString name="afii10039">
          -43 callgsubr
        </CharString>
        <CharString name="afii10040">
          270 0 148 -148 121 callgsubr
          336 366 677 -528 335 9 148 hintmask 00000000
          hintmask 10110010
          1428 -406 rmoveto
          hintmask 01111000
          184 64 callgsubr
          hintmask 01110110
          -249 1193 hlineto
          hintmask 10110010
          157 28 -69 callgsubr
          vlineto
          hintmask 10111000
          -641 -141 hlineto
          hintmask 10110110
          149 -28 rlineto
          -1205 -515 1204 vlineto
          181 29 -69 callgsubr
          -674 -73 callgsubr
          157 26 callgsubr
          -171 -43 callsubr
          vlineto
          hintmask 10110010
          1309 hlineto
          20 -45 35 -298 2 -63 rrcurveto
          endchar
        </CharString>
        <CharString name="afii10041">
          94 106 callgsubr
          hstemhm
          141 336 460 142 callsubr
          hintmask 10101110
          728 hmoveto
          708 132 hlineto
          hintmask 01101110
          -163 28 rlineto
          1193 vlineto
          163 28 -69 callgsubr
          -658 -73 callgsubr
          14 callgsubr
          hintmask 10110110
          254 vlineto
          hintmask 10101110
          79 callgsubr
          hintmask 01110110
          8 callsubr
          -487 vlineto
          hintmask 10101110
          -209 -27 rlineto
          endchar
        </CharString>
        <CharString name="afii10042">
          943 0 -3 callsubr
          hstem
          233 336 446 333 440 334 vstem
          727 1381 rmoveto
          141 -651 -73 callgsubr
          157 -27 51 callgsubr
          -171 145 callgsubr
          2231 -30 callgsubr
          -171 27 rlineto
          1192 vlineto
          157 28 -69 callgsubr
          -634 -141 vlineto
          48 callsubr
          endchar
        </CharString>
        <CharString name="afii10043">
          986 0 121 callgsubr
          336 446 333 297 677 -534 334 15 142 hintmask 00000000
          hintmask 11110010
          62 hmoveto
          2018 95 callgsubr
          hintmask 11110110
          -247 hlineto
          -9 1193 hlineto
          hintmask 11110010
          157 28 -69 callgsubr
          vlineto
          hintmask 11111000
          -634 -141 hlineto
          hintmask 11110110
          48 callsubr
          158 28 -69 callgsubr
          -651 -73 callgsubr
          157 -27 51 callgsubr
          -171 -27 rlineto
          endchar
        </CharString>
        <CharString name="afii10044">
          331 135 callsubr
          161 591 154 460 155 -135 136 hstemhm
          585 339 432 350 hintmask 00000000
          hintmask 01011011
          768 hmoveto
          85 262 -16 49 hhcurveto
          hintmask 10010111
          332 210 174 312 276 -171 160 -367 hvcurveto
          -244 446 hlineto
          212 34 rlineto
          hintmask 00111011
          136 -1049 vlineto
          -33 -587 rlineto
          198 hlineto
          74 422 259 19 rlineto
          -1215 vlineto
          hintmask 01011011
          -286 145 callgsubr
          vlineto
          785 752 rmoveto
          176 96 -89 -215 hvcurveto
          hintmask 10011011
          -186 -78 -137 -206 -72 -40 8 11 -36 vhcurveto
          608 vlineto
          endchar
        </CharString>
        <CharString name="afii10045">
          707 -16 141 -125 67 callsubr
          -68 callgsubr
          97 callgsubr
          hstemhm
          233 336 428 352 199 339 -62 callsubr
          hintmask 0000100100010000
          1383 hmoveto
          674 hlineto
          hintmask 0100000100010000
          132 vlineto
          hintmask 0000100100010000
          -96 callgsubr
          hintmask 0100000100010000
          -165 -26 rlineto
          -62 callsubr
          -1001 -134 rmoveto
          114 callgsubr
          hintmask 0000011011100000
          -7 callsubr
          hintmask 1000001011100000
          -1 -1201 rlineto
          hintmask 0001001011100000
          55 callgsubr
          hintmask 0010001011100000
          67 callgsubr
        </CharString>
        <CharString name="afii10046">
          -34 135 callsubr
          157 -136 -21 769 149 471 133 hstemhm
          233 336 428 352 hintmask 00000000
          hintmask 00011111
          382 hmoveto
          114 callgsubr
          hintmask 10001111
          -7 callsubr
          hintmask 00101111
          -1 -1201 rlineto
          hintmask 01001111
          55 callgsubr
          hintmask 10001111
          67 callgsubr
        </CharString>
        <CharString name="afii10047">
          -27 169 callgsubr
          hstem
          956 376 vstem
          361 -33 callgsubr
          endchar
        </CharString>
        <CharString name="afii10048">
          854 -19 137 -118 101 callsubr
          530 172 491 -20 callsubr
          -119 138 143 callsubr
          278 369 618 370 -62 callsubr
          hintmask 1001001111000000
          1523 -19 rmoveto
          404 274 308 496 5 hvcurveto
          3 457 -205 298 -460 1 -369 1 -279 -251 -43 -429 rrcurveto
          -283 hlineto
          hintmask 1001100111000000
          491 vlineto
          hintmask 1001010111000000
          161 28 17 callgsubr
          hintmask 0011100111000000
          152 26 callgsubr
          hintmask 0101001111000000
          -156 -43 callsubr
          660 -30 callgsubr
          hintmask 0011001111000000
          -166 26 rlineto
          530 278 vlineto
          hintmask 1001001111000000
          -432 14 212 -277 448 hhcurveto
          12 137 rmoveto
          -204 -113 216 420 450 121 199 193 194 110 -198 -421 -444 -103 -222 -198 hvcurveto
          endchar
        </CharString>
        <CharString name="afii10049">
          73 0 134 518 133 568 -20 callsubr
          -123 137 hstemhm
          163 356 397 142 callsubr
          hintmask 11001110
          7 hmoveto
          375 hlineto
          90 87 555 97 142 hvcurveto
          69 -1 116 -2 30 1 rrcurveto
          -492 vlineto
          -179 -24 1 -134 rlineto
          686 -50 callsubr
          -172 25 rlineto
          hintmask 11100110
          1194 vlineto
          hintmask 11010110
          160 28 -69 callgsubr
          -330 vlineto
          -123 -74 14 -143 hhcurveto
          hintmask 11001110
          -412 -167 -122 -293 -182 106 -177 192 -54 hvcurveto
          -229 -89 -49 -434 -105 -25 -71 -26 rcurveline
          909 660 rmoveto
          -8 -24 -69 -1 -35 hhcurveto
          -173 -96 107 227 201 83 79 169 91 28 -8 -3 26 hvcurveto
          endchar
        </CharString>
        <CharString name="afii10050">
          -248 0 134 1229 159 -138 138 hstemhm
          248 339 163 callsubr
          38 1384 rmoveto
          210 -32 -16 callsubr
          -214 -43 callsubr
          870 -30 callgsubr
          -317 27 rlineto
          hintmask 11010000
          1210 vlineto
          531 -16 20 526 rlineto
          -179 hlineto
          -77 -359 rlineto
          -844 hlineto
          endchar
        </CharString>
        <CharString name="afii10051">
          395 -418 165 253 138 -138 167 540 174 485 155 hstemhm
          575 339 110 449 -66 348 hintmask 00000000
          hintmask 11011110
          1018 -238 rmoveto
          13 -151 rlineto
          -11 29 66 -18 81 hhcurveto
          hintmask 11011101
          334 214 304 468 362 -169 165 -345 -122 -150 -53 -34 -54 hvcurveto
          -1 -1 rlineto
          583 vlineto
          331 -19 62 -327 rlineto
          hintmask 10111110
          189 hlineto
          -22 492 rlineto
          -1395 hlineto
          -27 -492 rlineto
          187 hlineto
          65 327 271 19 rlineto
          -1209 vlineto
          hintmask 11011101
          -271 -29 rlineto
          -138 851 138 vlineto
          hintmask 10111101
          -241 29 rlineto
          473 1 vlineto
          34 55 78 33 114 hhcurveto
          179 181 callsubr
          -175 hvcurveto
          hintmask 11011110
          -82 -34 9 6 -23 hvcurveto
          endchar
        </CharString>
        <CharString name="afii10052">
          -190 -19 callgsubr
          106 callsubr
          113 -45 callgsubr
          271 339 -162 519 hintmask 00001101
          565 -73 callsubr
          hintmask 00000000
          162 -328 rmoveto
          24 callgsubr
          hintmask 10100010
          107 callgsubr
          hintmask 01010010
          -222 145 callgsubr
          878 -30 callgsubr
          hintmask 10100010
          -317 27 rlineto
          endchar
        </CharString>
        <CharString name="afii10053">
          -38 -23 142 566 181 533 139 hstem
          55 379 vstem
          1013 671 rmoveto
          211 vlineto
          -45 -1 -392 -12 -142 -3 rrcurveto
          360 18 151 173 212 hhcurveto
          111 40 -28 -33 26 hvcurveto
          61 -265 rlineto
          219 hlineto
          24 401 rlineto
          13 -96 -158 51 -195 hhcurveto
          -470 -322 -302 -482 -462 250 -315 476 271 110 71 8 115 hvcurveto
          19 343 -187 9 -90 -223 rlineto
          -35 -29 -54 -31 -129 hhcurveto
          -231 -118 259 307 -22 hvcurveto
          143 -2 390 -10 44 -2 rrcurveto
          endchar
        </CharString>
        <CharString name="afii10054">
          47 callgsubr
          hstem
          118 321 407 340 vstem
          610 -23 -45 callsubr
        </CharString>
        <CharString name="afii10055">
          -74 callsubr
        </CharString>
        <CharString name="afii10057">
          -605 -18 callgsubr
        </CharString>
        <CharString name="afii10058">
          725 -16 141 -139 207 -193 101 callsubr
          553 154 485 76 callsubr
          1 189 239 350 -62 callsubr
          hintmask 0010110110100000
          1176 hmoveto
          85 261 -16 49 hhcurveto
          hintmask 1000110110100000
          331 207 168 298 264 -174 153 -347 -70 -157 -13 -6 -28 hvcurveto
          -2 -4 rlineto
          508 vlineto
          hintmask 1000101101100000
          189 29 rlineto
          hintmask 1000110101100000
          141 vlineto
          hintmask 1000110110100000
          -187 hlineto
          -2 -5 rlineto
          5 -1083 vlineto
          hintmask 0100101110100000
          -73 callgsubr
          225 -26 rlineto
          -145 vlineto
          -569 -56 -216 -65 -139 vhcurveto
          -73 -35 -39 -20 -57 hhcurveto
          -80 -40 4 3 -44 hvcurveto
          23 -201 rlineto
          -7 36 60 -6 61 hhcurveto
          115 79 54 112 59 hvcurveto
          95 182 53 385 482 vvcurveto
          hintmask 0001110110100000
          151 361 vlineto
          1 -1192 rlineto
          hintmask 0010110110100000
          -217 -43 callsubr
          vlineto
          550 704 rmoveto
          4 21 97 5 39 hhcurveto
          177 92 -84 -201 hvcurveto
          hintmask 1000110110100000
          -172 -74 -131 -207 -74 -37 9 11 -34 vhcurveto
          -2 -2 rlineto
          hintmask 0010110110100000
          562 vlineto
          endchar
        </CharString>
        <CharString name="afii10059">
          850 -19 144 165 callsubr
          138 558 161 -138 150 488 165 -13 callsubr
          176 callgsubr
          233 336 543 336 426 348 -62 callsubr
          hintmask 0011000111100000
          949 hmoveto
          323 hlineto
          85 279 -19 61 hhcurveto
          hintmask 1000110011100000
          310 215 156 313 264 -197 155 -323 hvcurveto
          -254 488 hlineto
          hintmask 1001000111100000
          159 32 rlineto
          133 -657 -133 vlineto
          hintmask 1001010011100000
          163 -32 -1 -500 rlineto
          -543 496 hlineto
          hintmask 1001001011100000
          171 28 rlineto
          hintmask 1001000111100000
          141 -659 vlineto
          hintmask 1001001011100000
          -73 callgsubr
          hintmask 0101010011100000
          152 -31 callsubr
          -2 callgsubr
          hintmask 0011000111100000
          -134 663 138 vlineto
          -171 27 rlineto
          531 543 -530 vlineto
          -163 -28 rlineto
          hintmask 1000100111100000
          656 581 rmoveto
          176 93 -84 -204 -174 -74 -132 -206 -63 -48 13 8 -35 hvcurveto
          573 vlineto
          endchar
        </CharString>
        <CharString name="afii10060">
          475 0 134 564 183 483 157 hstem
          585 340 479 335 vstem
          926 791 rmoveto
          -1 -2 rlineto
          585 vlineto
          322 -19 73 -325 rlineto
          179 hlineto
          -21 492 rlineto
          -1401 hlineto
          -28 -492 rlineto
          188 hlineto
          65 327 283 18 rlineto
          -1215 vlineto
          -253 -43 callsubr
          779 -30 callgsubr
          -186 26 rlineto
          478 1 vlineto
          28 70 67 32 135 hhcurveto
          174 32 -84 -268 hvcurveto
          -186 vlineto
          -127 -43 callsubr
          607 -30 callgsubr
          -145 25 rlineto
          266 vlineto
          353 -127 103 -328 -122 -135 -39 -51 -101 vhcurveto
          endchar
        </CharString>
        <CharString name="afii10061">
          78 79 callsubr
          136 callsubr
          334 45 519 -229 555 hintmask 00011010
          729 -73 callsubr
          hintmask 11100101
          877 -1702 rmoveto
          -23 callsubr
        </CharString>
        <CharString name="afii10062">
          81 callgsubr
          178 callgsubr
          288 140 callgsubr
          -243 464 hintmask 00111000
          713 1641 -82 callgsubr
          hintmask 11000100
          -249 -1664 -89 callsubr
          endchar
        </CharString>
        <CharString name="afii10065">
          -54 callgsubr
          130 callsubr
          316 52 callsubr
          hintmask 00000000
          hintmask 01111100
          -88 callsubr
          hintmask 01111010
          87 126 22 11 50 hvcurveto
          hintmask 10111010
          127 vlineto
          hintmask 10111100
          -98 callsubr
          hintmask 01111100
          -96 callsubr
          endchar
        </CharString>
        <CharString name="afii10066">
          -206 -16 134 871 174 hstem
          45 335 430 339 vstem
          607 -16 rmoveto
          344 198 253 354 343 -105 229 -350 -218 -133 -118 -44 -36 hvcurveto
          16 235 77 81 79 31 100 55 188 14 178 6 100 6 31 52 9 107 15 190 rcurveline
          -169 hlineto
          -22 -69 -15 -47 -34 -12 -49 -6 rlinecurve
          -101 -11 -185 -44 -121 -73 rrcurveto
          -225 -127 -134 -252 -366 vvcurveto
          -518 193 -269 369 vhcurveto
          1 134 rmoveto
          -175 -53 184 589 hvcurveto
          45 42 71 53 105 hhcurveto
          153 59 -80 -333 -295 -34 -163 -168 hvcurveto
          endchar
        </CharString>
        <CharString name="afii10067">
          -40 -12 142 -130 65 callgsubr
          -138 -21 533 135 313 157 125 callgsubr
          -122 122 -122 137 hstemhm
          223 319 349 327 -269 368 -62 callsubr
          hintmask 0001100011000000
          90 hmoveto
          244 hlineto
          66 197 -12 120 hhcurveto
          hintmask 1000100011010000
          462 138 147 221 117 -106 132 -209 18 hvcurveto
          hintmask 1000100011100000
          149 47 67 100 124 vvcurveto
          140 -80 119 -410 vhcurveto
          hintmask 1000100101000000
          -124 -181 -15 -74 hhcurveto
          -261 hlineto
          hintmask 1000101001000000
          -27 callsubr
          hintmask 0010110001000000
          135 -26 rlineto
          -822 vlineto
          hintmask 0100100011000000
          -133 -25 rlineto
          hintmask 1000100011010000
          452 9 rmoveto
          390 159 vlineto
          177 71 -67 -137 -120 -61 -79 -194 -42 -88 3 10 -22 hvcurveto
          525 vmoveto
          348 147 vlineto
          hintmask 1000100011100000
          160 42 -57 -88 -99 -41 -104 -174 hvcurveto
          endchar
        </CharString>
        <CharString name="afii10068">
          -344 43 callsubr
          828 139 callsubr
          hstemhm
          220 329 hintmask 00000000
          hintmask 10011000
          74 hmoveto
          734 -50 callsubr
          hintmask 01011000
          -259 20 rlineto
          852 vlineto
          20 callsubr
          hintmask 01101000
          142 -25 rlineto
          -828 vlineto
          hintmask 10011000
          184 callsubr
        </CharString>
        <CharString name="afii10069">
          -46 0 141 848 149 125 callgsubr
          hstemhm
          31 192 132 170 297 175 callsubr
          hintmask 11011100
          31 -406 rmoveto
          192 hlineto
          7 55 51 274 36 77 rrcurveto
          723 -1 hlineto
          31 -65 60 -281 7 -59 rrcurveto
          172 hlineto
          9 49 16 458 40 vvcurveto
          -187 hlineto
          hintmask 10111100
          841 vlineto
          178 25 rlineto
          hintmask 11011100
          131 -1164 vlineto
          hintmask 10111100
          -27 callsubr
          193 -25 rlineto
          -713 -137 -102 -77 -25 vhcurveto
          -52 hlineto
          -50 8 rlineto
          hintmask 11011100
          -5 -132 -3 -336 -88 vvcurveto
          791 1395 rmoveto
          -848 -420 vlineto
          69 112 54 289 346 vvcurveto
          101 vlineto
          endchar
        </CharString>
        <CharString name="afii10070">
          -49 callsubr
          hstem
          67 334 346 318 vstem
          612 -23 -93 callgsubr
        </CharString>
        <CharString name="afii10071">
          -49 callsubr
          169 352 166 callgsubr
          -223 5 callgsubr
          -275 318 hintmask 00010110
          327 1336 -107 callsubr
          hintmask 11101001
          -218 -1359 -93 callgsubr
        </CharString>
        <CharString name="afii10072">
          602 78 callgsubr
          hstem
          41 545 261 320 261 546 vstem
          1697 hmoveto
          80 callsubr
          -87 344 -203 100 rlinecurve
          258 347 162 25 rlineto
          -93 callsubr
          endchar
        </CharString>
        <CharString name="afii10073">
          -297 -16 89 callgsubr
          hstemhm
          680 341 -301 367 hintmask 00000000
          hintmask 10010100
          75 60 15 callsubr
          hintmask 10011000
          31 callsubr
          hintmask 10100100
          176 callsubr
          hintmask 11011000
          1 callsubr
          hintmask 11010100
          29 callsubr
        </CharString>
        <CharString name="afii10074">
          35 callgsubr
          hstemhm
          223 326 481 326 139 callgsubr
          -65 callsubr
          hintmask 11011000
          828 vlineto
          hintmask 10111000
          -47 callgsubr
          hintmask 11011000
          590 vlineto
          hintmask 10111000
          36 callsubr
          hintmask 11011000
          37 callgsubr
          endchar
        </CharString>
        <CharString name="afii10075">
          35 callgsubr
          172 93 callsubr
          326 -188 254 340 255 -180 175 callsubr
          hintmask 10101001
          -65 callsubr
          hintmask 11001001
          828 vlineto
          hintmask 10101001
          -47 callgsubr
          hintmask 11001001
          590 vlineto
          hintmask 10101001
          36 callsubr
          hintmask 11001001
          37 callgsubr
          hintmask 00010110
          695 1176 -83 callgsubr
          endchar
        </CharString>
        <CharString name="afii10076">
          -28 132 callgsubr
          hstemhm
          222 325 252 546 hintmask 00000000
          hintmask 10111100
          1072 hmoveto
          80 callsubr
          -89 346 -204 99 rlinecurve
          258 346 161 25 rlineto
          -7 callgsubr
          endchar
        </CharString>
        <CharString name="afii10077">
          -106 -14 180 callgsubr
          833 55 callsubr
          hintmask 00000000
          hintmask 10000111
          135 1007 rmoveto
          -15 callsubr
          hintmask 00110011
          104 279 -833 vlineto
          hintmask 01010011
          -150 -19 -41 callgsubr
          644 -30 callgsubr
          hintmask 00101011
          -167 19 rlineto
          822 vlineto
          178 29 rlineto
          hintmask 01010011
          134 -1126 vlineto
          endchar
        </CharString>
        <CharString name="afii10078">
          433 0 134 848 137 callsubr
          -17 530 -530 1884 163 callsubr
          -17 hmoveto
          530 -50 callsubr
          -171 20 46 595 24 262 86 -263 261 -669 rlineto
          240 hlineto
          213 664 72 266 36 -269 66 -584 -152 -22 -41 callgsubr
          633 -30 callgsubr
          -149 20 rlineto
          hintmask 11001000
          -139 828 rlineto
          hintmask 10101000
          196 -34 callgsubr
          -632 vlineto
          -174 -588 -30 -155 -40 155 -219 588 rlineto
          -613 -131 hlineto
          hintmask 11010000
          177 -25 -107 -828 -154 -20 rlineto
          endchar
        </CharString>
        <CharString name="afii10079">
          135 43 callsubr
          363 88 callgsubr
          327 hintmask 00000000
          hintmask 10111100
          90 hmoveto
          600 -50 callsubr
          hintmask 01111100
          91 callgsubr
          -363 vlineto
          hintmask 10111100
          -140 134 callsubr
          hintmask 01111100
          -133 20 rlineto
          827 vlineto
          132 124 callsubr
          -597 -27 callsubr
          138 -25 rlineto
          -318 50 callgsubr
          -827 vlineto
          hintmask 10111100
          185 callgsubr
        </CharString>
        <CharString name="afii10080">
          29 callgsubr
          hstem
          63 351 413 353 vstem
          -76 callsubr
          endchar
        </CharString>
        <CharString name="afii10081">
          89 0 65 callgsubr
          841 138 hstemhm
          223 327 403 326 139 callgsubr
          91 hmoveto
          591 -50 callsubr
          hintmask 01111000
          170 callsubr
          hintmask 10111000
          -138 147 callgsubr
          597 -30 callgsubr
          hintmask 01111000
          -133 25 rlineto
          822 102 callsubr
          hintmask 10111000
          -132 -25 rlineto
          endchar
        </CharString>
        <CharString name="afii10082">
          -98 52 callgsubr
          hstemhm
          68 83 callgsubr
          1245 -60 callsubr
          394 212 295 334 hvcurveto
          -567 374 rmoveto
          98 callsubr
          -341 -2 -116 -117 -137 38 callsubr
          endchar
        </CharString>
        <CharString name="afii10083">
          62 callsubr
          hstem
          74 347 vstem
          74 557 -67 callsubr
        </CharString>
        <CharString name="afii10084">
          -84 0 134 872 170 callgsubr
          837 -50 callsubr
          -259 25 rlineto
          847 vlineto
          39 callgsubr
        </CharString>
        <CharString name="afii10085">
          -233 -22 callsubr
          hstem
          -25 595 177 459 vstem
          285 -106 callgsubr
          endchar
        </CharString>
        <CharString name="afii10086">
          457 -497 130 -130 159 313 148 -148 175 845 171 -144 144 hstemhm
          69 341 209 473 -462 468 -321 315 -315 484 199 341 -62 callsubr
          hintmask 1010011100010000
          1240 -25 rmoveto
          357 204 260 366 400 -206 165 -243 -120 -85 -43 -61 -60 hvcurveto
          5 230 rlineto
          346 vlineto
          -65 42 rlineto
          -4 hlineto
          hintmask 1010011010010000
          -393 -49 rlineto
          -122 vlineto
          hintmask 0110011000110000
          147 -24 rlineto
          -193 vlineto
          7 -157 rlineto
          17 -37 -67 14 -51 hhcurveto
          -357 -203 -260 -366 -400 206 -165 242 120 86 43 62 60 hvcurveto
          -6 -193 rlineto
          -225 vlineto
          hintmask 1010011100010000
          -158 -29 rlineto
          -130 vlineto
          hintmask 1010011000110000
          642 130 hlineto
          hintmask 0110011010010000
          -163 29 rlineto
          225 vlineto
          -5 118 rlineto
          hintmask 1010011100010000
          -18 36 57 -12 54 hhcurveto
          hintmask 1010101001010000
          -13 1020 rmoveto
          132 101 -141 -277 -342 -123 -112 -126 -62 -44 31 19 -13 hvcurveto
          776 vlineto
          27 30 49 19 56 hhcurveto
          hintmask 1001011001010000
          -585 -845 rmoveto
          -132 -101 133 277 1 hvcurveto
          342 121 120 128 62 43 -31 -19 13 vhcurveto
          -774 vlineto
          -29 -29 -49 -19 -57 hhcurveto
          endchar
        </CharString>
        <CharString name="afii10087">
          -39 callgsubr
        </CharString>
        <CharString name="afii10088">
          74 0 147 835 156 -131 93 callgsubr
          399 329 139 callgsubr
          1261 -406 rmoveto
          172 hlineto
          10 30 50 483 41 vvcurveto
          -214 hlineto
          -1 -1 rlineto
          hintmask 11011000
          835 vlineto
          hintmask 10111000
          121 -34 callgsubr
          -584 -27 callsubr
          hintmask 11011000
          134 -25 rlineto
          -835 -399 835 vlineto
          hintmask 10111000
          139 -34 callgsubr
          -598 -27 callsubr
          hintmask 11011000
          132 -25 rlineto
          -823 vlineto
          -131 -26 rlineto
          -133 1102 vlineto
          hintmask 10111000
          20 -42 39 -305 8 -59 rrcurveto
          endchar
        </CharString>
        <CharString name="afii10089">
          -43 169 callsubr
          hstem
          111 332 384 321 vstem
          -21 callsubr
          endchar
        </CharString>
        <CharString name="afii10090">
          708 0 143 864 131 hstem
          223 319 361 317 360 319 vstem
          84 hmoveto
          1966 127 hlineto
          -151 26 rlineto
          829 vlineto
          134 -34 callgsubr
          -589 -27 callsubr
          136 -25 rlineto
          15 callgsubr
        </CharString>
        <CharString name="afii10091">
          705 0 143 -143 148 859 93 callsubr
          319 361 317 360 319 hintmask 00000000
          hintmask 10111100
          84 hmoveto
          1725 hlineto
          20 -42 39 -309 7 -59 rrcurveto
          173 hlineto
          hintmask 01111100
          9 30 50 487 41 vvcurveto
          -208 834 hlineto
          134 -34 callgsubr
          -589 -27 callsubr
          136 -25 rlineto
          hintmask 10111100
          15 callgsubr
        </CharString>
        <CharString name="afii10092">
          131 157 callsubr
          -68 callgsubr
          156 399 146 300 137 hstemhm
          497 320 366 337 hintmask 00000000
          hintmask 01011100
          244 hmoveto
          396 175 callgsubr
          hintmask 10011110
          322 186 108 269 216 -143 127 -319 hvcurveto
          -241 -1 rlineto
          280 vlineto
          144 27 -15 callgsubr
          -909 -480 185 vlineto
          53 338 207 10 rlineto
          hintmask 00111100
          -850 vlineto
          hintmask 01011110
          -253 -22 rlineto
          719 421 rmoveto
          156 64 -90 -131 hvcurveto
          hintmask 10011110
          -136 -72 -78 -172 -44 -48 8 9 -30 vhcurveto
          418 vlineto
          endchar
        </CharString>
        <CharString name="afii10093">
          96 callsubr
          hstemhm
          223 320 339 336 173 315 hintmask 00000000
          hintmask 01110111
          74 hmoveto
          270 175 callgsubr
          hintmask 10110111
          94 callsubr
          hintmask 10101111
          162 26 rlineto
          hintmask 10110111
          132 -629 vlineto
          hintmask 10101111
          -132 vlineto
          hintmask 01110111
          82 callgsubr
          hintmask 10101111
          825 vlineto
          122 22 rlineto
          hintmask 10110111
          134 -569 vlineto
          hintmask 10101111
          -134 vlineto
          hintmask 01110111
          87 callsubr
          hintmask 10110111
          118 callsubr
        </CharString>
        <CharString name="afii10094">
          -149 157 callsubr
          127 -127 154 -133 -21 555 146 281 156 176 callgsubr
          223 320 360 337 -62 callsubr
          hintmask 0001101100000000
          77 hmoveto
          288 hlineto
          78 237 -19 58 hhcurveto
          hintmask 1000110110000000
          319 183 117 260 216 -143 127 -318 hvcurveto
          -236 281 hlineto
          hintmask 1000101100000000
          169 23 rlineto
          133 -631 -133 vlineto
          hintmask 0010110100000000
          142 -23 rlineto
          -828 vlineto
          hintmask 0100101110000000
          -146 -27 rlineto
          606 428 rmoveto
          157 63 -90 -131 hvcurveto
          hintmask 1000101110000000
          -136 -70 -78 -169 -64 -30 5 7 -27 vhcurveto
          423 vlineto
          endchar
        </CharString>
        <CharString name="afii10095">
          151 callsubr
          hstem
          687 348 vstem
          270 496 -33 callsubr
        </CharString>
        <CharString name="afii10096">
          535 -23 139 -116 65 callgsubr
          355 151 317 64 callsubr
          -109 139 hstemhm
          223 329 981 351 -62 callsubr
          hintmask 0101001110000000
          91 hmoveto
          618 -50 callsubr
          hintmask 0011001110000000
          -157 25 rlineto
          355 223 vlineto
          hintmask 1001001110000000
          -337 18 194 -200 327 hhcurveto
          302 268 187 418 368 -197 218 -343 -276 -248 -163 -340 -40 hvcurveto
          -228 hlineto
          hintmask 1001100110000000
          317 vlineto
          hintmask 1001010110000000
          148 -34 callgsubr
          -607 -27 callsubr
          hintmask 0011100110000000
          130 -25 rlineto
          -823 vlineto
          hintmask 0101001110000000
          -132 -25 rlineto
          hintmask 1001001110000000
          1241 -18 rmoveto
          -149 -58 167 316 304 65 126 137 151 55 -161 -315 -306 -63 -131 -138 hvcurveto
          endchar
        </CharString>
        <CharString name="afii10097">
          -36 0 136 313 132 401 156 -134 134 -117 131 hstemhm
          114 348 373 122 callgsubr
          hintmask 11001010
          33 hmoveto
          363 hlineto
          79 41 349 100 120 hvcurveto
          199 -288 hlineto
          -157 -25 rlineto
          -136 621 136 vlineto
          -144 24 rlineto
          hintmask 11100010
          822 vlineto
          hintmask 11010010
          139 22 rlineto
          134 -250 vlineto
          -94 -161 14 -129 hhcurveto
          hintmask 11001110
          -362 -184 -128 -220 -168 81 -113 163 -48 hvcurveto
          -84 -88 -37 -200 -113 -25 -91 -28 rcurveline
          666 447 rmoveto
          -177 -60 117 136 157 116 30 104 92 41 -3 -4 20 hvcurveto
          -430 vlineto
          -3 -28 -61 0 -47 hhcurveto
          endchar
        </CharString>
        <CharString name="afii10098">
          -369 0 101 callsubr
          834 144 125 callgsubr
          hstemhm
          227 321 hintmask 00000000
          hintmask 10101000
          816 hmoveto
          -30 callgsubr
          hintmask 01101000
          -268 26 rlineto
          839 vlineto
          457 -10 -12 472 rlineto
          -179 hlineto
          -41 -323 rlineto
          -688 hlineto
          hintmask 01011000
          -27 callsubr
          142 -25 rlineto
          -822 vlineto
          hintmask 10101000
          -146 -43 callsubr
          vlineto
          endchar
        </CharString>
        <CharString name="afii10099">
          -33 151 callgsubr
          731 193 139 127 hstemhm
          192 323 -323 468 5 73 152 330 -62 callsubr
          hintmask 0110111011000000
          17 1216 rmoveto
          175 hlineto
          hintmask 0101111011000000
          -1063 vlineto
          hintmask 0110111011000000
          -112 -19 -41 callgsubr
          554 133 vlineto
          hintmask 0101111011000000
          -119 21 rlineto
          648 vlineto
          40 52 78 42 85 hhcurveto
          128 32 -70 -181 hvcurveto
          -588 181 callgsubr
          hintmask 0110110101000000
          -28 -12 -59 -11 -21 1 rrcurveto
          hintmask 0110111011000000
          10 -136 rlineto
          hintmask 1010111011000000
          11 -8 83 -1 16 1 rrcurveto
          290 9 150 202 340 vvcurveto
          611 vlineto
          322 -86 123 -243 -160 -148 -68 -76 -83 vhcurveto
          17 224 rlineto
          59 221 127 -222 307 vlineto
          -60 43 rlineto
          -3 hlineto
          hintmask 0110110101000000
          -407 -49 rlineto
          -125 vlineto
          hintmask 0110111011000000
          146 -26 rlineto
          -150 -175 vlineto
          endchar
        </CharString>
        <CharString name="afii10100">
          -345 43 callsubr
          828 139 callsubr
          546 -21 hstemhm
          223 329 -195 553 hintmask 00001010
          478 1307 -94 callgsubr
          hintmask 00000000
          -280 -1407 rmoveto
          734 -50 callsubr
          hintmask 10010100
          -259 20 rlineto
          852 vlineto
          20 callsubr
          hintmask 01010100
          142 -25 rlineto
          -828 vlineto
          hintmask 01100100
          184 callsubr
        </CharString>
        <CharString name="afii10101">
          -331 -23 149 378 164 364 138 hstem
          51 347 vstem
          845 498 rmoveto
          177 vlineto
          -447 -12 rlineto
          250 10 83 119 143 hhcurveto
          76 38 -27 -35 27 hvcurveto
          41 -127 rlineto
          180 hlineto
          6 269 rlineto
          25 -61 -168 33 -130 hhcurveto
          -322 -272 -230 -362 2 hvcurveto
          -366 2 168 -235 374 hhcurveto
          181 149 52 64 78 hvcurveto
          8 216 rlineto
          -155 hlineto
          -46 -155 rlineto
          -16 -42 -50 -12 -56 hhcurveto
          -143 -101 108 277 -18 hvcurveto
          endchar
        </CharString>
        <CharString name="afii10102">
          -329 -23 133 922 132 hstem
          112 298 294 315 vstem
          113 60 -95 callsubr
        </CharString>
        <CharString name="afii10103">
          -686 0 112 callgsubr
          hintmask 11001000
          80 hmoveto
          -100 callsubr
          hintmask 00110000
          271 1188 -103 callsubr
          endchar
        </CharString>
        <CharString name="afii10104">
          -686 115 callgsubr
          190 352 hstemhm
          -65 341 -62 326 -101 340 hintmask 00110100
          84 1336 -107 callsubr
          hintmask 11001000
          -507 -1336 -37 callgsubr
        </CharString>
        <CharString name="afii10105">
          -718 167 callsubr
          176 363 hstemhm
          175 374 -332 122 callgsubr
          hintmask 01100100
          217 80 rmoveto
          hintmask 10100100
          -97 callsubr
          hintmask 00011000
          131 71 callgsubr
          endchar
        </CharString>
        <CharString name="afii10106">
          392 -19 142 -137 180 callgsubr
          -132 -21 547 151 288 55 callsubr
          369 329 -62 callsubr
          hintmask 0000111001110000
          926 hmoveto
          78 254 -19 58 hhcurveto
          hintmask 1000010101110000
          318 147 116 259 225 -136 117 -321 -104 -99 -18 -10 -38 hvcurveto
          305 vlineto
          178 29 rlineto
          hintmask 1000011001110000
          134 -1126 vlineto
          hintmask 0100010011110000
          -27 callsubr
          -15 callsubr
          hintmask 0001011001110000
          104 279 -833 vlineto
          hintmask 0010011001110000
          -150 -19 -41 callgsubr
          vlineto
          617 547 rmoveto
          149 80 -51 -159 hvcurveto
          hintmask 1000011001110000
          -136 -63 -78 -170 -68 -39 7 7 -29 vhcurveto
          388 vlineto
          hintmask 0010011001110000
          10 31 47 12 62 hhcurveto
          endchar
        </CharString>
        <CharString name="afii10107">
          632 -19 142 -123 134 383 147 -117 151 309 93 callsubr
          320 462 320 369 328 hintmask 00000000
          hintmask 01101110
          1149 hmoveto
          78 254 -19 58 hhcurveto
          hintmask 10011111
          318 165 116 259 225 -135 117 -322 -104 -98 -18 -10 -38 hvcurveto
          311 vlineto
          132 124 callsubr
          -594 -27 callsubr
          142 -25 rlineto
          hintmask 01101110
          82 callsubr
          -133 -20 -41 callgsubr
          598 -30 callgsubr
          -145 19 rlineto
          364 462 -363 vlineto
          -145 -20 -41 callgsubr
          vlineto
          hintmask 10011111
          605 547 rmoveto
          148 81 -51 -159 -136 -63 -78 -170 -69 -38 7 7 -28 hvcurveto
          -1 -1 rlineto
          389 vlineto
          10 30 48 12 62 hhcurveto
          endchar
        </CharString>
        <CharString name="afii10108">
          -22 0 134 746 192 135 133 hstemhm
          192 322 -322 330 376 324 hintmask 00000000
          hintmask 11101100
          48 1207 rmoveto
          144 -1054 hlineto
          -108 -19 -41 callgsubr
          557 -30 callgsubr
          -119 20 rlineto
          646 vlineto
          45 54 81 35 82 hhcurveto
          133 26 -78 -183 hvcurveto
          -466 vlineto
          -110 -20 rlineto
          -133 564 -30 callgsubr
          -130 20 rlineto
          465 vlineto
          310 -69 143 -260 -180 -142 -88 -64 -71 vhcurveto
          16 185 -1 102 rlineto
          244 133 hlineto
          hintmask 11110100
          -244 hlineto
          -1 296 -59 44 rlineto
          -6 hlineto
          -403 -49 116 callsubr
          hintmask 11101100
          146 -26 rlineto
          -142 -144 vlineto
          endchar
        </CharString>
        <CharString name="afii10109">
          -33 132 callgsubr
          545 -21 hstemhm
          223 325 -86 553 -215 546 hintmask 00001010
          583 1307 -94 callgsubr
          hintmask 00000000
          611 -1407 rmoveto
          80 callsubr
          -89 346 -204 99 rlinecurve
          258 346 161 -34 callgsubr
          -546 -27 callsubr
          140 -24 -198 -320 rlineto
          -194 318 hlineto
          129 124 callsubr
          -584 174 callsubr
          hintmask 10110101
          -829 vlineto
          hintmask 01110101
          146 callsubr
          -134 615 -30 callgsubr
          hintmask 10110101
          -158 19 rlineto
          377 vlineto
          112 -1 rlineto
          hintmask 01110101
          184 47 -529 182 hhcurveto
          endchar
        </CharString>
        <CharString name="afii10110">
          -233 -22 callsubr
          172 131 hstemhm
          -25 595 -393 254 316 459 -435 255 hintmask 11101010
          285 -106 callgsubr
          hintmask 00010101
          317 1820 -83 callgsubr
          endchar
        </CharString>
        <CharString name="afii10145">
          263 0 146 1235 141 hstem
          233 336 173 8 185 8 164 335 vstem
          1605 hmoveto
          -30 callgsubr
          -163 26 rlineto
          1192 vlineto
          156 29 -69 callgsubr
          -663 -73 callgsubr
          172 -28 rlineto
          -1207 -538 1207 vlineto
          181 28 -69 callgsubr
          -674 -73 callgsubr
          157 -28 -16 callsubr
          -163 145 callgsubr
          613 vlineto
          14 -18 45 -295 -97 vvcurveto
          201 hlineto
          97 42 295 14 18 vhcurveto
          endchar
        </CharString>
        <CharString name="afii10146">
          216 -15 137 -122 122 -122 134 582 146 332 143 217 129 hstemhm
          492 336 426 340 hintmask 00000000
          hintmask 01011111
          304 hmoveto
          376 hlineto
          81 233 -15 42 hhcurveto
          hintmask 10011111
          341 217 166 296 236 -150 179 -359 -123 -89 -15 -10 -45 hvcurveto
          357 1 vlineto
          299 -28 56 -141 rlineto
          188 hlineto
          -31 312 rlineto
          -513 185 hlineto
          176 32 1 129 rlineto
          -674 -129 hlineto
          161 -31 rlineto
          -186 -476 vlineto
          -28 -313 rlineto
          168 hlineto
          60 142 276 28 rlineto
          hintmask 00111111
          -1037 vlineto
          -188 -23 rlineto
          685 582 rmoveto
          180 85 -130 -162 hvcurveto
          hintmask 10011111
          -178 -94 -124 -205 -65 -31 4 10 -31 vhcurveto
          567 vlineto
          hintmask 00111111
          8 36 57 5 68 hhcurveto
          endchar
        </CharString>
        <CharString name="afii10147">
          82 -23 139 520 175 -61 174 479 138 hstemhm
          56 374 636 374 hintmask 00000000
          hintmask 11011100
          -16 callgsubr
          158 659 rmoveto
          69 58 30 39 43 hvcurveto
          -390 -13 -118 -199 -188 hhcurveto
          -188 -116 181 384 -14 hvcurveto
          hintmask 10111100
          30 30 40 39 59 hhcurveto
          hintmask 11011100
          102 93 -114 143 hhcurveto
          -148 767 rmoveto
          185 116 -158 -368 17 hvcurveto
          -29 -31 -41 -37 -57 hhcurveto
          hintmask 10111100
          -102 -94 113 -142 hhcurveto
          -69 -57 -30 -39 -43 hvcurveto
          hintmask 11011100
          374 17 116 174 185 hhcurveto
          endchar
        </CharString>
        <CharString name="afii10148">
          7 6 -21 1372 178 -154 141 13 -20 hstemhm
          -47 1534 hintmask 00000000
          hintmask 10011000
          821 464 rmoveto
          -43 -196 -50 195 rlineto
          hintmask 10101000
          -283 890 170 28 -69 callgsubr
          -662 -73 callgsubr
          126 -28 502 -1368 rlineto
          272 hlineto
          374 1107 rlineto
          hintmask 11001000
          55 206 88 58 111 1 rrcurveto
          6 157 hlineto
          7 -18 -50 14 -91 hhcurveto
          -121 -117 -67 -196 -40 hvcurveto
          endchar
        </CharString>
        <CharString name="afii10193">
          76 0 141 841 137 callsubr
          223 320 117 194 92 122 callgsubr
          hintmask 10111100
          92 hmoveto
          508 hlineto
          8 -18 52 -280 -95 vvcurveto
          194 hlineto
          95 33 280 10 18 vhcurveto
          506 133 hlineto
          -137 26 rlineto
          hintmask 11011100
          823 vlineto
          hintmask 10111100
          130 -34 callgsubr
          -588 -27 callsubr
          hintmask 11011100
          138 -25 rlineto
          -841 -403 841 vlineto
          hintmask 10111100
          139 -34 callgsubr
          -591 -27 callsubr
          hintmask 11011100
          132 -25 rlineto
          -823 vlineto
          -131 -26 rlineto
          endchar
        </CharString>
        <CharString name="afii10194">
          110 157 callsubr
          127 -127 153 436 143 349 133 hstemhm
          492 320 347 337 hintmask 00000000
          hintmask 10011100
          50 869 rmoveto
          171 hlineto
          62 210 209 5 rlineto
          hintmask 00111100
          -931 vlineto
          hintmask 01011100
          -137 -26 rlineto
          -127 306 vlineto
          76 245 -19 55 hhcurveto
          hintmask 10011110
          313 146 134 260 211 -122 146 -312 -111 -102 -18 -10 -36 hvcurveto
          -1 -1 rlineto
          381 vlineto
          226 -5 66 -210 rlineto
          172 hlineto
          -10 346 rlineto
          -454 421 hlineto
          -61 44 rlineto
          -4 hlineto
          -402 -49 rlineto
          -126 vlineto
          147 -24 rlineto
          -266 -432 vlineto
          753 -650 rmoveto
          9 28 67 15 58 hhcurveto
          139 54 -98 -130 -136 -66 -105 -153 -68 -30 6 8 -30 hvcurveto
          432 vlineto
          endchar
        </CharString>
        <CharString name="afii10195">
          -23 143 299 173 -44 165 312 143 hstemhm
          63 352 411 354 hintmask 00000000
          hintmask 11011100
          63 565 rmoveto
          -365 201 -223 343 302 271 188 415 365 -201 223 -343 -301 -272 -199 -404 vhcurveto
          725 27 rmoveto
          hintmask 10111100
          -91 -48 121 -126 hhcurveto
          -44 -35 -12 -19 -28 hvcurveto
          235 13 68 108 123 hhcurveto
          143 58 -151 -276 5 hvcurveto
          hintmask 11011100
          -4 -10 -13 -2 -15 hhcurveto
          -163 -472 rmoveto
          -141 -62 146 268 -7 hvcurveto
          hintmask 10111100
          8 14 18 6 24 hhcurveto
          hintmask 11011100
          98 57 -129 126 hhcurveto
          26 23 5 8 21 hvcurveto
          -214 -16 -65 -98 -116 hhcurveto
          endchar
        </CharString>
        <CharString name="afii10196">
          -228 5 -21 1026 128 9 -20 hstemhm
          -17 576 -576 1261 hintmask 00000000
          hintmask 10101000
          463 -16 rmoveto
          291 hlineto
          299 802 38 111 34 58 41 25 rlinecurve
          18 26 27 5 25 hhcurveto
          129 vlineto
          6 -20 -43 9 -81 hhcurveto
          -105 -86 -64 -148 -44 hvcurveto
          -145 -501 -59 -225 -69 232 rlineto
          hintmask 11001000
          -168 543 rlineto
          hintmask 11010000
          135 26 rlineto
          128 -576 -128 vlineto
          83 -25 rlineto
          endchar
        </CharString>
        <CharString name="afii10846">
          -293 108 callgsubr
          hstem
          63 323 331 333 vstem
          63 390 -24 callgsubr
        </CharString>
        <CharString name="afii61248">
          689 21 -21 25 135 475 176 -37 135 463 153 13 -20 hstemhm
          108 255 831 267 282 267 -62 callsubr
          hintmask 1010101110000000
          506 635 rmoveto
          132 105 60 58 62 hvcurveto
          -64 119 rlineto
          -31 -40 -60 -30 -91 hhcurveto
          -116 -73 107 203 2 hvcurveto
          154 3 56 97 100 hhcurveto
          53 25 -27 -26 15 hvcurveto
          30 -119 rlineto
          155 hlineto
          7 281 rlineto
          5 -44 -82 39 -138 hhcurveto
          -278 -158 -219 -242 1 hvcurveto
          -260 1 153 -169 244 hhcurveto
          301 -635 rmoveto
          hintmask 1001011110000000
          656 1538 rlineto
          -210 hlineto
          -656 -1538 rlineto
          hintmask 0101101110000000
          1003 160 rmoveto
          -106 -33 167 145 173 34 129 111 106 30 -154 -158 1 hvcurveto
          -174 -31 -128 -112 vhcurveto
          -17 -135 rmoveto
          231 196 159 287 244 -107 194 -283 -236 -190 -163 -288 -234 136 -199 253 hvcurveto
          endchar
        </CharString>
        <CharString name="afii61352">
          1378 172 callsubr
          -2 182 186 126 732 138 -138 162 hstemhm
          298 191 777 191 223 315 350 312 -62 callsubr
          hintmask 1011101111000000
          111 hmoveto
          584 132 hlineto
          hintmask 0101101111000000
          -206 28 rlineto
          1028 vlineto
          108 -242 rlineto
          hintmask 1011101111000000
          582 -946 rlineto
          279 1354 hlineto
          177 30 rlineto
          138 -561 -138 vlineto
          192 -30 1 -983 -107 254 -549 897 rlineto
          -500 -138 hlineto
          hintmask 0101011111000000
          187 -29 rlineto
          -1195 vlineto
          hintmask 1011011111000000
          -187 -28 rlineto
          2035 394 rmoveto
          270 240 178 349 1 hvcurveto
          310 1 -175 183 -288 hhcurveto
          -266 -248 -166 -350 -1 hvcurveto
          -311 -2 171 -193 297 hhcurveto
          27 126 rmoveto
          -115 2 -63 122 275 vvcurveto
          264 55 106 120 -1 vhcurveto
          114 -3 61 -113 -274 vvcurveto
          -273 -52 -106 -120 1 vhcurveto
          hintmask 0011101111000000
          -466 -494 rmoveto
          921 182 -921 hlineto
          endchar
        </CharString>
        <CharString name="agrave">
          -54 callgsubr
          519 -21 130 callsubr
          -219 552 -17 300 -288 397 -101 callsubr
          hintmask 0000101000000000
          54 1142 -80 callgsubr
        </CharString>
        <CharString name="amacron">
          -54 callgsubr
          256 196 130 callsubr
          -145 618 -157 300 -288 397 -101 callsubr
          hintmask 0000101000000000
          -302 1255 19 callsubr
        </CharString>
        <CharString name="ampersand">
          152 -22 147 -120 -21 718 148 576 115 hstemhm
          86 288 -154 303 288 266 116 204 hintmask 00000000
          hintmask 10111011
          1040 702 rmoveto
          153 -29 5 -103 -10 -106 -52 -101 rlinecurve
          -35 34 -98 93 -170 196 -96 119 rlinecurve
          218 115 122 106 220 vvcurveto
          145 -121 150 -278 vhcurveto
          hintmask 10110111
          -260 -198 -167 -216 -159 81 -144 86 -111 hvcurveto
          hintmask 10111011
          -142 -65 -159 -118 -188 vvcurveto
          -263 222 -132 358 137 130 26 65 95 vhcurveto
          hintmask 01111011
          -63 90 69 -22 113 hhcurveto
          38 121 10 24 34 hvcurveto
          127 vlineto
          -100 8 -76 45 -73 62 76 88 78 143 -1 182 144 29 rcurveline
          148 -501 vlineto
          hintmask 10111011
          -341 -725 rmoveto
          -210 -115 126 168 97 41 65 57 57 hvcurveto
          121 -150 167 -198 141 -121 rrcurveto
          -30 -55 -67 -14 -80 hhcurveto
          hintmask 10110111
          -176 1088 rmoveto
          139 63 74 90 119 16 -117 -64 -130 -30 -111 -119 -106 vhcurveto
          -55 68 -84 111 136 vvcurveto
          endchar
        </CharString>
        <CharString name="aogonek">
          -247 70 callgsubr
          490 188 -158 128 431 135 249 214 130 callsubr
          192 267 -143 98 callgsubr
          hintmask 0110111010000000
          58 319 rmoveto
          -225 162 -117 187 162 112 84 60 52 vhcurveto
          -31 vlineto
          -92 30 -22 97 -1 vhcurveto
          hintmask 0110111100000000
          -153 -69 -110 -112 -103 vvcurveto
          -133 113 -71 160 84 107 25 43 57 vhcurveto
          hintmask 1001111100000000
          157 callgsubr
          -29 -8 -47 hhcurveto
          -82 -51 39 71 72 109 111 152 44 hvcurveto
          1 2 0 1 2 hvcurveto
          hintmask 0101111001000000
          127 vlineto
          hintmask 0101111010000000
          -98 callsubr
          hintmask 0110111010000000
          -96 callsubr
          endchar
        </CharString>
        <CharString name="approxequal">
          -23 106 223 -49 221 206 223 -49 221 hstemhm
          184 1017 hintmask 00000000
          hintmask 01001000
          285 174 172 callgsubr
          hintmask 10001000
          20 callgsubr
          hintmask 01001000
          68 callgsubr
          hintmask 00000000
          101 484 172 callgsubr
          hintmask 00011000
          20 callgsubr
          hintmask 00101000
          68 callgsubr
          endchar
        </CharString>
        <CharString name="aring">
          -54 callgsubr
          131 137 312 140 130 callsubr
          -195 194 317 300 -292 193 -189 397 -62 callsubr
          hintmask 0111001010000000
          -88 callsubr
          hintmask 0111001000100000
          87 126 22 11 50 hvcurveto
          hintmask 1011001000100000
          127 vlineto
          hintmask 1011001010000000
          -98 callsubr
          hintmask 0111001010000000
          -96 callsubr
          hintmask 0000110101000000
          1130 vmoveto
          -54 callsubr
          endchar
        </CharString>
        <CharString name="arrowboth">
          1222 669 221 hstem
          103 2429 vstem
          2532 779 rmoveto
          -600 600 -148 -148 357 -357 -152 16 rlineto
          -1343 hlineto
          -153 -16 358 357 -149 148 -599 -600 599 -599 149 148 -358 357 153 -16 rlineto
          1343 hlineto
          152 16 -357 -357 148 -148 rlineto
          endchar
        </CharString>
        <CharString name="arrowdown">
          143 144 1325 hstem
          667 221 vstem
          871 534 rmoveto
          17 153 rlineto
          782 -221 -782 vlineto
          16 -153 -357 358 128 callsubr
          rlineto
          endchar
        </CharString>
        <CharString name="arrowleft">
          143 669 221 hstem
          105 1325 vstem
          704 180 rmoveto
          149 148 -359 357 154 -16 rlineto
          781 hlineto
          1 221 rlineto
          -782 hlineto
          -154 -17 359 358 -149 148 -599 -600 rlineto
          endchar
        </CharString>
        <CharString name="arrowright">
          121 669 221 hstem
          111 1325 vstem
          1436 779 rmoveto
          -599 600 -149 -148 359 -358 -154 17 rlineto
          -782 hlineto
          1 -221 rlineto
          781 hlineto
          154 16 -359 -357 149 -148 rlineto
          endchar
        </CharString>
        <CharString name="arrowup">
          143 133 1325 hstem
          667 221 vstem
          1229 710 rmoveto
          148 148 -600 600 -599 -600 148 -148 357 358 -16 -153 rlineto
          -782 221 782 vlineto
          -17 153 rlineto
          endchar
        </CharString>
        <CharString name="arrowupdn">
          143 1624 -21 hstem
          667 221 vstem
          777 1993 rmoveto
          -599 -599 148 -149 357 358 -16 -153 rlineto
          -1342 vlineto
          16 -153 -357 357 128 callsubr
          -357 -357 16 153 rlineto
          1342 vlineto
          -16 153 357 -358 148 149 rlineto
          endchar
        </CharString>
        <CharString name="asciicircum">
          -50 1531 -20 hstem
          164 1035 vstem
          164 273 rmoveto
          270 hlineto
          246 934 247 -934 rlineto
          272 hlineto
          -406 1258 rlineto
          -228 hlineto
          endchar
        </CharString>
        <CharString name="asciitilde">
          15 406 223 -49 221 hstemhm
          201 1017 hintmask 00000000
          hintmask 01100000
          302 474 172 callgsubr
          hintmask 10100000
          20 callgsubr
          hintmask 01100000
          68 callgsubr
          endchar
        </CharString>
        <CharString name="asterisk">
          -56 620 1107 hstem
          127 1104 vstem
          263 780 rmoveto
          191 146 179 172 -55 -236 -24 -242 rlineto
          266 hlineto
          -32 242 -65 234 188 -167 185 -141 135 228 -217 93 -245 66 245 70 211 102 -132 220 -192 -146 -178 -169 54 234 25 241 rlineto
          -265 hlineto
          30 -244 66 -235 -184 168 -194 143 -128 -223 219 -94 240 -68 -240 -72 -215 -102 rlineto
          endchar
        </CharString>
        <CharString name="at">
          806 -521 173 290 248 -228 201 741 168 313 171 hstemhm
          153 207 233 252 430 222 346 189 -62 callsubr
          hintmask 1011111110000000
          153 343 rmoveto
          -536 296 -328 498 200 192 56 93 111 vhcurveto
          -49 113 rlineto
          -51 -77 -176 -38 -152 hhcurveto
          -338 -298 236 510 604 372 383 445 328 338 -158 -490 -341 -176 -233 -141 -19 -18 75 106 8 hvcurveto
          12 197 66 314 35 156 -58 16 -47 26 -49 14 -28 5 -36 -29 -8 -26 rrcurveto
          39 -76 -90 16 -73 hhcurveto
          -341 -211 -374 -328 hvcurveto
          hintmask 1101111110000000
          -268 156 -160 142 182 144 246 242 89 vhcurveto
          -25 -143 -9 -93 3 -54 rrcurveto
          hintmask 1011111110000000
          -117 6 60 -61 71 hhcurveto
          175 445 283 561 489 -305 261 -453 -586 -535 -514 -699 hvcurveto
          hintmask 1101111110000000
          692 108 rmoveto
          226 85 227 161 52 129 -50 -38 34 vhcurveto
          -6 -55 -26 -87 -21 -66 rrcurveto
          -202 -69 -136 -216 -87 hhcurveto
          -85 -31 171 90 hvcurveto
          endchar
        </CharString>
        <CharString name="atilde">
          -54 callgsubr
          158 208 -47 208 130 callsubr
          -293 920 -311 98 callgsubr
          hintmask 0111001010000000
          -88 callsubr
          hintmask 0111001001000000
          87 126 22 11 50 hvcurveto
          hintmask 1011001001000000
          127 vlineto
          hintmask 1011001010000000
          -98 callsubr
          hintmask 0111001010000000
          -96 callsubr
          -62 callsubr
          -345 1221 92 callsubr
          hintmask 0000010100000000
          -61 callgsubr
          hintmask 0000100100000000
          58 callsubr
        </CharString>
        <CharString name="b">
          -140 -23 127 868 196 hstem
          147 320 391 346 vstem
          -23 callgsubr
          endchar
        </CharString>
        <CharString name="backslash">
          156 callsubr
          37 750 vstem
          269 1599 rmoveto
          -232 hlineto
          518 -1962 rlineto
          232 hlineto
          endchar
        </CharString>
        <CharString name="bar">
          104 callgsubr
          1966 -227 hlineto
          endchar
        </CharString>
        <CharString name="braceleft">
          133 callgsubr
          279 310 -169 266 hintmask 00000000
          hintmask 11110000
          279 -17 rmoveto
          -165 86 -105 258 112 96 22 21 90 vhcurveto
          128 -159 vlineto
          -102 -71 22 128 hvcurveto
          113 97 164 139 vvcurveto
          hintmask 11101000
          149 -128 66 -161 23 vhcurveto
          161 24 128 63 144 139 -97 168 114 vvcurveto
          hintmask 11110000
          126 71 23 102 vhcurveto
          159 124 hlineto
          21 -90 -96 22 -112 hhcurveto
          -256 -88 -102 -168 hvcurveto
          -188 141 -112 -170 vvcurveto
          hintmask 11101000
          -88 -6 -45 -245 vhcurveto
          -177 vlineto
          245 6 -66 -91 hvcurveto
          hintmask 11110000
          -170 -141 -108 -188 vvcurveto
          endchar
        </CharString>
        <CharString name="braceright">
          133 callgsubr
          373 266 -169 310 hintmask 00000000
          hintmask 11101000
          780 -17 rmoveto
          188 -141 108 170 vvcurveto
          91 6 66 245 vhcurveto
          hintmask 11110000
          177 vlineto
          -245 -6 45 88 hvcurveto
          170 141 112 188 vvcurveto
          168 -88 102 -256 -112 -96 -22 -21 -90 vhcurveto
          -124 vlineto
          hintmask 11101000
          159 hlineto
          102 71 -23 -126 hvcurveto
          -114 -97 -168 -139 vvcurveto
          hintmask 11110000
          -144 128 -63 161 -24 vhcurveto
          -161 -23 -128 -66 -149 -139 97 -164 -113 vvcurveto
          -128 -71 -22 -102 vhcurveto
          -159 -128 hlineto
          -21 90 96 -22 112 hhcurveto
          hintmask 11101000
          258 86 105 165 hvcurveto
          endchar
        </CharString>
        <CharString name="bracketleft">
          161 callgsubr
          175 283 vstem
          175 -50 rmoveto
          -197 93 -34 163 109 93 20 24 85 vhcurveto
          115 -260 1612 260 113 vlineto
          21 -85 -93 23 -109 hhcurveto
          -163 -93 -34 -197 hvcurveto
          endchar
        </CharString>
        <CharString name="bracketright">
          161 callgsubr
          416 283 vstem
          699 1416 rmoveto
          197 -93 34 -163 -109 -93 -23 -21 -85 vhcurveto
          -113 260 -1612 -260 -115 vlineto
          -24 85 93 -20 109 hhcurveto
          163 93 34 197 hvcurveto
          endchar
        </CharString>
        <CharString name="breve">
          -391 1330 225 hstem
          141 155 428 151 vstem
          511 1330 rmoveto
          -91 callgsubr
        </CharString>
        <CharString name="breve.cap">
          -391 1627 207 hstem
          136 141 callgsubr
          vstem
          513 1627 7 callgsubr
        </CharString>
        <CharString name="breve.r">
          -391 1310 131 hstem
          85 254 340 255 vstem
          510 1310 -83 callgsubr
          endchar
        </CharString>
        <CharString name="breve.rcap">
          -391 1641 123 hstem
          85 140 callgsubr
          vstem
          510 1641 -82 callgsubr
          endchar
        </CharString>
        <CharString name="brokenbar">
          104 callgsubr
          827 -227 hlineto
          309 vmoveto
          227 830 -227 hlineto
          endchar
        </CharString>
        <CharString name="bullet">
          -547 428 179 callsubr
          428 66 callsubr
        </CharString>
        <CharString name="bullet.cap">
          -547 573 179 callsubr
          573 66 callsubr
        </CharString>
        <CharString name="c">
          62 callsubr
          hstem
          74 347 vstem
          74 557 -67 callsubr
        </CharString>
        <CharString name="cacute">
          62 callsubr
          514 -21 hstemhm
          74 347 2 553 hintmask 00101000
          544 1306 -94 callgsubr
          hintmask 11010000
          -349 -849 -67 callsubr
        </CharString>
        <CharString name="caron">
          -392 1735 179 callgsubr
          110 804 hintmask 00000000
          hintmask 01100000
          413 1315 -58 callsubr
          hintmask 10100000
          2 callgsubr
          endchar
        </CharString>
        <CharString name="caron.cap">
          -734 1646 368 hstem
          -47 775 vstem
          233 1646 0 callgsubr
        </CharString>
        <CharString name="caronvertical">
          -1012 1623 -21 hstem
          117 239 vstem
          230 987 -63 callsubr
        </CharString>
        <CharString name="ccaron">
          62 callsubr
          566 179 callgsubr
          74 347 -211 804 hintmask 00000000
          hintmask 00010100
          513 1314 -58 callsubr
          hintmask 00100100
          2 callgsubr
          hintmask 11001000
          -136 -1156 -67 callsubr
        </CharString>
        <CharString name="ccedilla">
          -351 122 callsubr
          199 846 146 hstemhm
          74 347 160 223 hintmask 01110000
          74 557 -98 callgsubr
          hintmask 00000000
          446 -551 21 callsubr
          hintmask 10001000
          -97 callgsubr
          endchar
        </CharString>
        <CharString name="ccircumflex">
          62 callsubr
          135 488 hstemhm
          74 347 -216 807 hintmask 00101000
          311 1303 -82 callsubr
          hintmask 11010000
          -131 -834 -67 callsubr
        </CharString>
        <CharString name="cdotaccent">
          62 callsubr
          153 363 hstemhm
          74 347 -6 374 hintmask 11010000
          74 557 -98 callgsubr
          hintmask 00101000
          513 764 -103 callsubr
          endchar
        </CharString>
        <CharString name="cedilla">
          -798 -520 206 -185 -21 hstemhm
          259 223 hintmask 00000000
          hintmask 01100000
          198 6 21 callsubr
          hintmask 10100000
          -97 callgsubr
          endchar
        </CharString>
        <CharString name="cent">
          -225 -21 197 -176 -21 31 -21 1171 -20 25 -20 hstemhm
          112 347 44 177 -83 177 hintmask 00000000
          hintmask 00101110
          112 557 rmoveto
          1 -290 120 -225 276 -53 -12 -232 rcurveline
          178 hlineto
          hintmask 01001110
          11 222 173 13 140 87 50 57 rlinecurve
          hintmask 10001101
          -55 121 rlineto
          -40 -62 -86 -41 -126 hhcurveto
          -152 -111 141 309 2 hvcurveto
          297 1 88 99 119 hhcurveto
          50 44 -17 -40 14 hvcurveto
          52 -214 rlineto
          201 hlineto
          14 355 -59 7 -80 41 -134 11 rlinecurve
          11 210 rlineto
          -177 hlineto
          hintmask 00110101
          -11 -215 rlineto
          hintmask 00101110
          -295 -45 -184 -234 -1 -324 rrcurveto
          endchar
        </CharString>
        <CharString name="circumflex">
          -379 1304 488 hstem
          113 807 vstem
          219 1304 23 callgsubr
        </CharString>
        <CharString name="circumflex.cap">
          -351 1645 -21 108 179 callgsubr
          125 801 163 callsubr
          234 1624 -81 callgsubr
          hintmask 11010000
          30 callgsubr
        </CharString>
        <CharString name="colon">
          -714 4 -21 854 -21 hstemhm
          158 384 hintmask 01100000
          331 816 -60 callgsubr
          hintmask 10100000
          -833 vmoveto
          -70 callsubr
          endchar
        </CharString>
        <CharString name="colonmonetary">
          162 -26 142 -121 -21 29 -21 1413 146 hstemhm
          122 354 96 273 -130 255 -128 270 hintmask 00000000
          hintmask 00111100
          572 -333 rmoveto
          hintmask 00111001
          129 hlineto
          23 315 rlineto
          hintmask 01011001
          -5 41 43 -3 45 hhcurveto
          12 hlineto
          -23 -307 rlineto
          hintmask 00111010
          129 hlineto
          24 315 177 19 78 53 106 9 rlinecurve
          32 274 -171 33 -83 -181 -34 -29 -41 -21 -52 -11 rlinecurve
          83 1247 29 -7 21 -9 10 -10 rlinecurve
          46 -245 rlineto
          180 hlineto
          23 375 rlineto
          hintmask 00111001
          -63 4 -104 28 -130 17 20 286 rcurveline
          -129 hlineto
          -18 -275 rlineto
          hintmask 00111100
          1 -21 -21 1 -21 hhcurveto
          -26 -25 -1 -2 -25 hvcurveto
          19 276 rlineto
          hintmask 00111010
          -130 hlineto
          -19 -294 rlineto
          -353 -73 -231 -270 -447 vvcurveto
          hintmask 10011100
          -380 159 -258 316 -86 vhcurveto
          141 135 rmoveto
          84 1249 rlineto
          3 19 20 2 20 hhcurveto
          27 28 -1 -2 28 hvcurveto
          -85 -1276 rlineto
          -53 -47 8 17 -41 hvcurveto
          -262 624 rmoveto
          307 81 188 134 83 vhcurveto
          -77 -1114 rlineto
          -94 109 -44 183 244 vvcurveto
          endchar
        </CharString>
        <CharString name="comma">
          -727 -476 823 hstem
          308 239 vstem
          338 27 callgsubr
          endchar
        </CharString>
        <CharString name="commaaccent">
          -734 3 callgsubr
          hstemhm
          188 325 163 callsubr
          513 -262 -92 callsubr
          hintmask 11010000
          2 callsubr
          hintmask 10110000
          -24 callsubr
          endchar
        </CharString>
        <CharString name="copyright">
          717 130 136 245 184 663 147 232 134 hstem
          196 158 267 223 932 157 vstem
          1074 511 rmoveto
          144 128 83 71 57 hvcurveto
          -62 105 rlineto
          -44 -48 -71 -31 -78 hhcurveto
          -171 -129 140 201 183 75 139 149 90 25 -16 -15 22 hvcurveto
          48 -136 rlineto
          135 hlineto
          5 252 rlineto
          40 -40 -130 22 -89 hhcurveto
          -294 -219 -226 -282 -281 155 -205 298 hvcurveto
          -720 491 rmoveto
          59 callsubr
          -158 hmoveto
          59 callgsubr
          endchar
        </CharString>
        <CharString name="currency">
          134 317 228 457 228 hstem
          324 238 418 244 vstem
          174 286 rmoveto
          134 -135 228 229 rlineto
          -40 67 80 -23 87 hhcurveto
          87 80 24 43 68 hvcurveto
          229 -229 134 135 -227 225 rlineto
          52 76 31 93 100 vvcurveto
          95 -29 87 -49 71 vhcurveto
          226 224 -134 134 -230 -229 rlineto
          41 -69 -81 23 -88 hhcurveto
          -87 -79 -26 -43 -68 hvcurveto
          -230 232 -132 -135 229 -228 rlineto
          -50 -77 -29 -92 -99 vvcurveto
          -96 27 -86 48 -71 vhcurveto
          373 36 rmoveto
          -115 -95 100 123 122 66 112 138 113 101 -100 -134 -123 -63 -100 -145 hvcurveto
          endchar
        </CharString>
        <CharString name="d">
          -58 callgsubr
        </CharString>
        <CharString name="dagger">
          -319 1096 211 hstem
          415 263 vstem
          461 84 rmoveto
          174 hlineto
          43 755 -29 266 287 -18 rlineto
          229 vlineto
          -287 -17 29 212 rlineto
          147 -263 -147 vlineto
          31 -212 -288 17 -1 -229 289 18 -31 -266 rlineto
          endchar
        </CharString>
        <CharString name="daggerdbl">
          -318 447 208 442 210 hstemhm
          416 220 -174 217 hintmask 00000000
          hintmask 11100000
          157 441 rmoveto
          hintmask 11010000
          296 13 -37 -218 46 -686 rlineto
          hintmask 11100000
          174 hlineto
          43 686 -35 218 293 -13 rlineto
          222 vlineto
          -293 -14 35 269 -30 187 288 -16 rlineto
          227 vlineto
          hintmask 11010000
          -289 -17 31 204 rlineto
          155 vlineto
          hintmask 11100000
          -263 -155 hlineto
          32 -204 -291 17 rlineto
          -227 vlineto
          291 16 -32 -187 37 -269 -296 14 rlineto
          endchar
        </CharString>
        <CharString name="dcaron">
          130 34 callsubr
          489 -21 hstemhm
          70 345 392 320 208 239 hintmask 00000000
          hintmask 01100110
          514 -23 rmoveto
          -42 callsubr
          hintmask 10010110
          -48 callsubr
          hintmask 01100110
          -88 callgsubr
          hintmask 00001001
          812 826 -63 callsubr
        </CharString>
        <CharString name="dcroat">
          -126 34 callsubr
          130 136 142 callgsubr
          122 callgsubr
          hintmask 01101110
          554 1264 rmoveto
          252 hlineto
          hintmask 01011110
          -110 vlineto
          hintmask 01101110
          8 -39 -45 6 -43 hhcurveto
          -400 -210 -289 -336 -395 199 -171 245 -42 callsubr
          hintmask 10101110
          132 -107 1124 139 136 -139 233 vlineto
          -63 47 rlineto
          -8 hlineto
          -442 -43 rlineto
          -128 vlineto
          193 -26 rlineto
          -83 -252 vlineto
          hintmask 01101110
          81 -1239 rmoveto
          -130 -95 124 294 4 hvcurveto
          337 3 113 113 138 hhcurveto
          64 57 -21 -25 17 hvcurveto
          -745 vlineto
          -37 -31 -58 -40 -82 hhcurveto
          endchar
        </CharString>
        <CharString name="degree">
          -391 930 181 365 180 hstem
          143 198 340 198 vstem
          510 930 rmoveto
          205 164 153 210 198 -153 165 -216 -199 -168 -154 -209 -199 168 -164 199 hvcurveto
          3 181 rmoveto
          -96 -76 85 97 103 68 80 100 97 75 -85 -98 -106 -67 -76 -101 hvcurveto
          endchar
        </CharString>
        <CharString name="dieresis">
          -392 1336 352 hstem
          90 5 callgsubr
          vstem
          239 1336 -90 callsubr
        </CharString>
        <CharString name="dieresis.cap">
          -393 1653 -13 callgsubr
          76 154 callgsubr
          hintmask 01110000
          224 11 callsubr
          hintmask 10110000
          -80 callsubr
          hintmask 01110000
          -84 callsubr
          hintmask 10110000
          -79 callgsubr
          hintmask 01110000
          75 callgsubr
        </CharString>
        <CharString name="divide">
          -56 513 202 hstemhm
          502 357 -347 357 hintmask 00000000
          hintmask 11000000
          502 185 rmoveto
          -94 79 -62 82 112 84 64 109 82 -60 73 -107 -102 -88 -71 -101 vhcurveto
          -295 328 rmoveto
          943 202 -943 hlineto
          hintmask 10100000
          467 171 rmoveto
          111 84 63 108 82 -59 74 -108 -102 -88 -72 -102 -93 79 -60 83 hvcurveto
          endchar
        </CharString>
        <CharString name="dollar">
          -43 -20 137 -113 -21 1423 132 -4 -20 24 -20 hstemhm
          183 316 93 197 -183 169 122 332 -62 callsubr
          hintmask 0100110110000000
          1229 422 rmoveto
          234 -178 112 -217 120 vhcurveto
          -162 87 -173 84 156 vvcurveto
          hintmask 0110011010000000
          113 91 77 136 1 vhcurveto
          76 1 57 -22 31 -32 49 -225 rcurveline
          184 hlineto
          13 337 -52 18 -139 43 -156 12 rlinecurve
          224 vlineto
          hintmask 1001010110000000
          -183 -228 hlineto
          -266 -35 -157 -166 -195 vvcurveto
          -255 159 -118 206 -106 vhcurveto
          205 -104 144 -85 -138 vvcurveto
          -132 -69 -83 -171 -111 -68 28 44 -41 vhcurveto
          -54 242 rlineto
          -188 hlineto
          -17 -364 rlineto
          hintmask 1000111010000000
          57 -17 166 -58 193 -12 -2 -238 rcurveline
          hintmask 0100110110000000
          183 hlineto
          2 241 rlineto
          327 36 125 199 204 vvcurveto
          endchar
        </CharString>
        <CharString name="dong">
          -28 0 147 124 160 -150 158 598 125 -25 -20 163 133 hstemhm
          158 319 345 294 hintmask 00000000
          hintmask 10010111
          529 1280 rmoveto
          293 hlineto
          hintmask 10001111
          -143 vlineto
          hintmask 10110111
          14 -55 -65 11 -63 hhcurveto
          -302 -179 -168 -292 -284 176 -137 202 136 95 61 63 62 hvcurveto
          hintmask 11010111
          -36 vlineto
          -77 26 -21 81 77 173 23 15 52 vhcurveto
          122 -122 849 170 133 -170 258 vlineto
          -45 31 rlineto
          -5 hlineto
          -416 -39 rlineto
          -129 vlineto
          172 -16 rlineto
          -105 -293 vlineto
          hintmask 10110111
          124 -974 rmoveto
          -99 -82 88 204 5 hvcurveto
          242 3 84 64 108 hhcurveto
          75 62 -24 -22 13 hvcurveto
          -465 vlineto
          -39 -31 -60 -48 -78 hhcurveto
          -472 -439 rmoveto
          1088 147 -1088 hlineto
          endchar
        </CharString>
        <CharString name="dotaccent">
          -845 1322 363 hstem
          98 374 vstem
          270 1322 -103 callsubr
          endchar
        </CharString>
        <CharString name="dotaccent.cap">
          -839 1683 -21 hstem
          111 363 vstem
          276 1662 -12 callsubr
        </CharString>
        <CharString name="dotlessi">
          74 callgsubr
          hstem
          211 326 vstem
          77 hmoveto
          -100 callsubr
          endchar
        </CharString>
        <CharString name="dotlessj">
          149 callsubr
          hstemhm
          217 122 callgsubr
          hintmask 01110000
          217 80 rmoveto
          hintmask 10110000
          -97 callsubr
          endchar
        </CharString>
        <CharString name="e">
          -49 callsubr
          hstem
          67 334 346 318 vstem
          612 -23 -93 callgsubr
        </CharString>
        <CharString name="eacute">
          -49 callsubr
          516 -21 166 callgsubr
          4 553 -211 318 hintmask 00010100
          526 1307 -94 callgsubr
          hintmask 11101010
          207 -1430 -93 callgsubr
        </CharString>
        <CharString name="ebreve">
          -49 callsubr
          163 225 166 callgsubr
          -182 155 373 318 -263 151 hintmask 11101010
          612 -23 -107 callgsubr
          hintmask 00010101
          304 vmoveto
          -91 callgsubr
        </CharString>
        <CharString name="ecaron">
          -49 callsubr
          568 -21 22 -21 166 callgsubr
          -210 804 -248 318 hintmask 00000000
          hintmask 00001010
          494 1315 -58 callsubr
          hintmask 00010010
          2 callgsubr
          hintmask 11100101
          421 -1737 -93 callgsubr
        </CharString>
</ttFont>
